<?xml version="1.0" standalone="no"?>
<!DOCTYPE svg PUBLIC "-//W3C//DTD SVG 20010904//EN"
 "http://www.w3.org/TR/2001/REC-SVG-20010904/DTD/svg10.dtd">
<svg version="1.0" xmlns="http://www.w3.org/2000/svg"
 width="900.000000pt" height="900.000000pt" viewBox="0 0 900.000000 900.000000"
 preserveAspectRatio="xMidYMid meet">
<metadata>
Created by potrace 1.10, written by Peter Selinger 2001-2011
</metadata>
<g transform="translate(0.000000,900.000000) scale(0.100000,-0.100000)"
fill="#cbbf15" stroke="none">
<path d="M4428 8653 c-10 -2 -18 -9 -18 -14 0 -5 -14 -9 -31 -9 -33 0 -89 -46
-89 -73 0 -13 5 -12 34 3 19 9 50 30 67 45 46 38 102 30 176 -26 30 -22 57
-38 60 -35 10 9 -64 76 -84 76 -10 0 -24 9 -31 20 -12 19 -42 24 -84 13z"/>
<path d="M4200 8445 c-9 -11 -10 -21 -3 -38 11 -22 11 -22 22 7 14 34 1 55
-19 31z"/>
<path d="M4706 8413 c10 -40 14 -41 14 -5 0 18 -5 32 -10 32 -6 0 -8 -11 -4
-27z"/>
<path d="M4615 8410 c-3 -5 -1 -20 6 -32 7 -12 12 -33 13 -47 1 -33 24 -39 31
-8 10 38 -34 113 -50 87z"/>
<path d="M4315 8389 c-4 -11 -4 -23 -2 -26 9 -8 27 7 27 22 0 23 -18 27 -25 4z"/>
<path d="M4167 8354 c-9 -9 4 -35 14 -28 5 3 9 12 9 20 0 14 -12 19 -23 8z"/>
<path d="M4765 8268 c-9 -22 4 -43 17 -30 7 7 7 16 0 29 -10 17 -11 17 -17 1z"/>
<path d="M4312 8224 c1 -9 9 -19 16 -22 9 -3 13 2 10 14 -1 9 -9 19 -16 22 -9
3 -13 -2 -10 -14z"/>
<path d="M4795 8200 c-9 -14 2 -60 15 -60 6 0 10 -16 10 -35 0 -22 6 -38 15
-41 9 -4 15 -19 15 -35 0 -17 6 -32 15 -35 9 -4 15 -19 15 -39 0 -18 7 -38 15
-45 8 -7 15 -21 15 -31 0 -9 7 -24 15 -33 8 -8 15 -29 15 -46 0 -18 6 -33 15
-36 9 -4 15 -19 15 -35 0 -17 6 -32 15 -35 8 -4 15 -18 15 -34 0 -15 6 -33 14
-40 8 -6 16 -23 18 -37 2 -15 9 -28 16 -31 18 -6 15 47 -3 54 -9 4 -15 19 -15
40 0 22 -6 37 -15 40 -9 4 -15 19 -15 35 0 17 -6 32 -15 35 -8 4 -15 18 -15
34 0 15 -7 33 -15 40 -8 7 -15 25 -15 39 0 15 -7 36 -15 47 -8 10 -15 29 -15
40 0 12 -7 27 -15 34 -8 7 -15 23 -15 35 0 12 -7 28 -15 35 -8 7 -15 23 -15
36 0 12 -7 29 -15 38 -8 8 -15 23 -15 33 0 27 -16 48 -25 33z"/>
<path d="M4110 8178 c0 -19 2 -20 10 -8 13 19 13 30 0 30 -5 0 -10 -10 -10
-22z"/>
<path d="M4737 8143 c-4 -6 -1 -24 7 -40 8 -15 19 -39 25 -53 9 -23 10 -21 10
18 1 23 -4 42 -9 42 -6 0 -14 10 -19 22 -4 13 -10 17 -14 11z"/>
<path d="M4156 8050 c-14 -22 -26 -51 -26 -64 0 -14 -4 -27 -9 -30 -4 -3 -16
-27 -26 -53 -17 -46 -37 -92 -91 -211 -13 -29 -24 -56 -24 -61 0 -4 -16 -45
-36 -92 -40 -94 -44 -106 -70 -169 -9 -25 -26 -65 -37 -90 -11 -25 -30 -73
-43 -107 -13 -35 -28 -71 -34 -80 -5 -10 -23 -52 -39 -93 -16 -41 -50 -124
-76 -185 -26 -60 -50 -121 -55 -135 -4 -14 -17 -45 -28 -70 -12 -25 -37 -85
-57 -134 -20 -49 -41 -96 -45 -105 -5 -9 -16 -34 -25 -56 -9 -22 -23 -53 -30
-70 -8 -16 -23 -52 -35 -80 -57 -136 -81 -188 -96 -217 -8 -14 -14 -34 -14
-44 0 -9 33 -58 74 -108 40 -50 192 -248 336 -441 145 -192 270 -356 278 -364
7 -8 24 -30 37 -50 13 -20 36 -50 52 -67 15 -16 40 -48 56 -70 15 -23 36 -50
47 -62 11 -12 20 -24 20 -28 0 -7 58 -85 75 -99 6 -5 29 -35 50 -65 21 -30 54
-71 72 -91 19 -21 46 -52 59 -71 30 -39 50 -43 46 -8 -5 44 -20 1028 -27 1808
-5 583 -4 763 6 801 10 41 10 53 -5 81 -23 47 -23 196 1 222 16 18 16 22 0 66
-16 43 -35 193 -21 165 3 -7 12 -13 20 -13 18 0 19 44 1 59 -19 15 -42 142
-32 177 l8 29 9 -32 c11 -43 28 -42 28 0 0 24 -8 41 -30 62 -17 16 -30 40 -31
54 -1 22 -2 21 -10 -9 -6 -19 -12 -57 -14 -85 -6 -65 -17 -587 -14 -645 2 -39
2 -140 1 -272 -1 -21 0 -57 0 -80 1 -50 1 -318 0 -365 -1 -43 -2 -82 -1 -168
0 -38 -1 -140 -2 -225 -1 -85 -1 -171 0 -190 1 -19 1 -60 -1 -90 -1 -30 -1
-134 0 -230 0 -96 1 -191 1 -210 0 -30 5 -206 16 -496 1 -44 8 -90 14 -103 12
-22 7 -61 -9 -61 -11 0 -34 23 -67 68 -15 21 -48 60 -73 88 -25 28 -82 97
-128 155 -45 57 -110 136 -143 174 -34 39 -81 99 -105 135 -24 36 -88 120
-144 187 -55 67 -100 125 -100 129 0 4 -24 35 -52 69 -63 73 -112 142 -151
209 -28 46 -28 51 -16 90 7 23 18 48 25 56 7 8 16 28 20 44 4 16 17 45 30 63
12 19 30 57 39 86 10 29 28 75 40 102 53 113 65 142 65 156 0 8 11 33 24 55
13 23 40 95 61 160 20 66 41 123 46 129 5 5 9 21 9 36 0 15 7 32 15 39 8 7 15
21 15 31 0 10 9 24 20 31 12 8 20 24 20 39 0 22 36 132 68 209 6 14 18 52 27
85 9 33 25 76 36 96 10 19 25 62 34 94 8 33 19 63 25 69 5 5 10 22 10 36 0 14
7 35 15 46 8 12 25 51 39 87 13 36 31 76 39 89 8 13 18 39 22 58 4 19 11 41
16 50 18 34 61 189 54 199 -11 19 -21 12 -49 -29z"/>
<path d="M4046 8034 c-10 -25 -7 -34 9 -34 8 0 15 9 15 19 0 26 -16 35 -24 15z"/>
<path d="M4377 7974 c-11 -11 -8 -64 3 -64 6 0 13 7 17 16 7 18 -9 58 -20 48z"/>
<path d="M4428 7958 c-6 -17 1 -38 13 -38 5 0 9 11 9 25 0 26 -14 34 -22 13z"/>
<path d="M3930 7725 c1 -26 2 -28 11 -12 8 14 8 22 0 30 -8 8 -11 3 -11 -18z"/>
<path d="M3870 7585 c1 -26 2 -28 11 -12 8 14 8 22 0 30 -8 8 -11 3 -11 -18z"/>
<path d="M5060 7523 c0 -10 5 -25 10 -33 7 -11 10 -7 10 18 0 17 -4 32 -10 32
-5 0 -10 -8 -10 -17z"/>
<path d="M5092 7434 c2 -15 9 -29 16 -32 10 -3 13 4 10 24 -2 15 -9 29 -16 32
-10 3 -13 -4 -10 -24z"/>
<path d="M5030 7376 c0 -7 8 -20 17 -27 15 -12 16 -12 10 4 -4 10 -7 23 -7 28
0 5 -4 9 -10 9 -5 0 -10 -6 -10 -14z"/>
<path d="M5122 7364 c2 -15 9 -29 16 -32 10 -3 13 4 10 24 -2 15 -9 29 -16 32
-10 3 -13 -4 -10 -24z"/>
<path d="M5150 7291 c0 -21 5 -31 16 -31 11 0 14 8 12 27 -4 39 -28 42 -28 4z"/>
<path d="M3750 7285 c1 -26 2 -28 11 -12 8 14 8 22 0 30 -8 8 -11 3 -11 -18z"/>
<path d="M5086 7263 c-12 -12 -6 -43 13 -62 11 -11 21 -34 23 -52 2 -18 9 -34
15 -37 9 -2 11 6 7 30 -4 18 -10 38 -14 43 -4 6 -11 25 -15 42 -7 34 -18 47
-29 36z"/>
<path d="M5180 7223 c0 -10 4 -24 9 -32 12 -19 24 3 16 29 -8 25 -25 26 -25 3z"/>
<path d="M3720 7210 c0 -19 3 -21 12 -12 9 9 9 15 0 24 -9 9 -12 7 -12 -12z"/>
<path d="M5210 7146 c0 -14 5 -28 10 -31 6 -4 10 7 10 24 0 17 -4 31 -10 31
-5 0 -10 -11 -10 -24z"/>
<path d="M5240 7070 c0 -17 7 -38 15 -46 8 -9 15 -24 15 -34 0 -25 19 -35 27
-14 3 9 -1 31 -10 48 -9 17 -17 40 -19 50 -5 34 -28 31 -28 -4z"/>
<path d="M5155 7040 c-3 -10 -1 -29 5 -41 7 -11 10 -30 7 -40 -6 -20 18 -94
39 -119 6 -8 23 -53 38 -100 50 -162 59 -185 76 -210 9 -14 20 -38 24 -55 4
-16 13 -37 20 -45 7 -8 18 -41 25 -72 7 -31 19 -62 27 -68 7 -7 14 -17 14 -22
0 -5 9 -21 20 -35 13 -17 20 -41 20 -72 0 -35 5 -49 20 -59 11 -7 20 -16 20
-21 0 -5 10 -31 21 -58 12 -26 23 -74 25 -105 l4 -58 -62 -60 c-35 -33 -66
-60 -70 -60 -5 0 -8 -8 -8 -19 0 -10 -10 -33 -22 -52 -13 -19 -30 -47 -38 -62
-8 -16 -22 -33 -31 -38 -10 -5 -23 -25 -29 -44 -8 -24 -18 -35 -31 -35 -11 0
-21 -9 -25 -24 -3 -14 -14 -32 -25 -42 -10 -9 -19 -23 -19 -30 0 -7 -8 -19
-19 -26 -10 -7 -33 -34 -50 -61 -18 -26 -55 -70 -82 -98 -27 -28 -47 -54 -44
-58 2 -5 -9 -21 -25 -37 -16 -16 -30 -35 -30 -42 0 -7 -18 -30 -40 -52 -22
-22 -40 -48 -40 -59 0 -11 -6 -24 -14 -28 -7 -4 -21 -23 -30 -41 -9 -18 -23
-35 -31 -38 -8 -3 -17 -15 -21 -26 -6 -19 -95 -152 -166 -248 -53 -72 -109
-183 -97 -195 7 -7 24 5 52 36 46 51 45 51 100 124 20 28 42 56 48 63 6 7 36
50 66 95 30 45 75 104 99 131 24 28 57 68 72 91 15 22 35 49 44 59 10 11 30
38 45 60 16 23 33 46 38 53 6 6 21 28 35 48 14 21 39 54 56 74 17 20 48 61 69
91 21 30 45 61 52 68 7 7 13 16 13 20 0 4 13 21 28 38 15 18 34 42 42 54 14
21 224 303 242 325 5 6 17 21 28 34 32 38 36 69 12 94 -22 24 -62 109 -62 134
0 8 -6 29 -14 46 -7 18 -19 52 -27 76 -7 24 -20 53 -29 65 -9 11 -27 46 -40
76 -13 30 -30 62 -37 71 -7 8 -13 27 -13 40 0 14 -14 47 -30 73 -31 49 -35 56
-90 211 -18 49 -43 105 -56 125 -13 19 -24 44 -24 56 0 12 -7 24 -15 28 -9 3
-15 19 -15 41 0 61 -31 99 -45 55z"/>
<path d="M5300 6921 c0 -16 6 -34 14 -38 8 -4 16 -18 18 -31 1 -12 8 -23 13
-23 16 0 17 27 1 43 -8 8 -16 28 -18 43 -4 40 -28 45 -28 6z"/>
<path d="M5363 6784 c-3 -8 -1 -20 6 -27 8 -8 11 -4 11 16 0 30 -7 35 -17 11z"/>
<path d="M5395 6708 c-9 -22 4 -43 17 -30 7 7 7 16 0 29 -10 17 -11 17 -17 1z"/>
<path d="M5420 6631 c0 -11 4 -22 9 -25 11 -7 23 22 15 35 -9 16 -24 10 -24
-10z"/>
<path d="M5510 6416 c0 -14 5 -28 10 -31 6 -4 10 7 10 24 0 17 -4 31 -10 31
-5 0 -10 -11 -10 -24z"/>
<path d="M5640 6109 c1 -10 42 -113 59 -148 9 -19 57 -35 78 -27 14 6 12 12
-14 39 -17 18 -37 45 -44 61 -11 23 -79 88 -79 75z"/>
<path d="M6143 5908 c26 -7 49 -7 70 0 28 9 24 10 -38 10 -66 0 -68 -1 -32
-10z"/>
<path d="M6356 5912 c-3 -6 7 -12 22 -15 25 -5 41 -2 31 7 -12 10 -48 16 -53
8z"/>
<path d="M3018 5869 c-26 -4 -53 -11 -59 -15 -7 -4 -73 -6 -146 -5 l-133 2
-25 -27 c-35 -37 -21 -44 90 -42 56 1 99 -4 114 -11 13 -7 33 -10 45 -6 131
38 196 45 271 29 29 -7 44 -17 53 -37 13 -26 42 -38 42 -17 0 19 -81 129 -98
134 -22 6 -94 4 -154 -5z"/>
<path d="M2058 5853 c12 -2 30 -2 40 0 9 3 -1 5 -23 4 -22 0 -30 -2 -17 -4z"/>
<path d="M5721 5842 c-6 -11 -11 -28 -11 -36 0 -21 30 -20 45 0 10 15 14 15
41 1 22 -11 41 -13 74 -7 25 5 65 5 90 1 25 -4 70 -6 100 -4 30 1 62 3 70 3 8
1 54 -4 102 -11 90 -11 144 -6 103 11 -11 5 -38 9 -60 9 -22 1 -72 8 -110 16
-83 19 -108 21 -291 31 -137 6 -142 6 -153 -14z"/>
<path d="M1603 5823 c9 -2 25 -2 35 0 9 3 1 5 -18 5 -19 0 -27 -2 -17 -5z"/>
<path d="M7210 5820 c20 -13 47 -13 55 0 4 6 -9 10 -32 10 -28 0 -34 -3 -23
-10z"/>
<path d="M7352 5813 c-24 -10 0 -23 41 -23 39 1 41 2 23 15 -20 15 -40 18 -64
8z"/>
<path d="M1301 5801 c-19 -12 21 -25 50 -16 17 6 19 9 8 16 -8 5 -21 9 -29 9
-8 0 -21 -4 -29 -9z"/>
<path d="M1430 5800 c0 -5 7 -10 15 -10 8 0 15 5 15 10 0 6 -7 10 -15 10 -8 0
-15 -4 -15 -10z"/>
<path d="M7481 5801 c-24 -15 32 -25 102 -17 51 5 69 3 100 -14 31 -17 55 -20
145 -20 59 1 116 0 127 -2 12 -2 20 3 20 12 0 12 -21 15 -119 17 -68 1 -124 7
-131 13 -17 14 -225 23 -244 11z"/>
<path d="M925 5770 c-8 -13 15 -24 27 -12 6 6 4 11 -6 15 -8 3 -18 2 -21 -3z"/>
<path d="M1035 5771 c-9 -16 13 -23 48 -15 28 6 30 8 12 15 -28 11 -53 11 -60
0z"/>
<path d="M5672 5768 c-5 -7 -13 -24 -17 -38 -7 -24 -7 -24 16 -8 13 8 25 25
27 37 4 23 -10 28 -26 9z"/>
<path d="M8080 5753 c-114 -13 -57 -31 99 -32 67 0 121 4 121 9 0 14 -37 21
-95 19 -27 -1 -59 0 -70 3 -11 3 -36 3 -55 1z"/>
<path d="M587 5744 c-20 -20 31 -31 81 -17 18 4 20 8 10 14 -15 10 -82 12 -91
3z"/>
<path d="M745 5740 c-4 -6 8 -10 30 -10 22 0 34 4 30 10 -3 6 -17 10 -30 10
-13 0 -27 -4 -30 -10z"/>
<path d="M1635 5730 c-3 -5 -17 -10 -31 -10 -15 0 -24 -6 -24 -16 0 -13 7 -15
30 -11 16 4 32 2 36 -4 4 -6 12 -2 21 10 8 12 11 26 8 31 -8 13 -32 13 -40 0z"/>
<path d="M482 5708 c-6 -7 -28 -22 -49 -32 -45 -23 -113 -94 -113 -118 0 -22
10 -48 19 -48 4 0 18 25 31 55 13 30 29 55 36 55 7 0 17 6 21 13 11 18 72 53
106 61 15 3 27 11 27 16 0 14 -66 12 -78 -2z"/>
<path d="M1340 5705 c-27 -10 -47 -10 -88 -2 -39 8 -60 8 -85 -1 -18 -7 -132
-19 -253 -27 -120 -8 -246 -20 -279 -25 -33 -6 -87 -15 -120 -21 -33 -6 -61
-12 -63 -14 -11 -11 288 -75 354 -75 17 0 43 9 57 20 42 34 107 51 201 55 48
3 94 9 101 15 7 6 24 8 38 5 14 -4 37 0 53 8 20 10 50 13 100 10 62 -4 72 -2
78 14 5 12 0 23 -14 35 -25 20 -31 21 -80 3z"/>
<path d="M8350 5711 l-25 -7 25 -7 c42 -11 82 -8 78 6 -5 14 -43 18 -78 8z"/>
<path d="M8447 5683 c-4 -4 15 -27 42 -52 27 -25 52 -56 55 -68 9 -27 26 -30
26 -5 0 22 -24 58 -69 100 -35 33 -43 37 -54 25z"/>
<path d="M3312 5671 c4 -13 18 -16 19 -4 0 4 -5 9 -11 12 -7 2 -11 -2 -8 -8z"/>
<path d="M5598 5640 c-27 -34 -27 -35 -7 -38 29 -5 41 10 37 44 l-3 29 -27
-35z"/>
<path d="M7755 5650 c-3 -6 0 -13 8 -16 24 -9 80 0 85 14 5 15 -84 17 -93 2z"/>
<path d="M7913 5650 c-25 -10 -33 -46 -9 -37 8 3 73 9 146 13 72 4 127 10 123
14 -13 12 -236 20 -260 10z"/>
<path d="M8205 5630 c-4 -6 -4 -14 -1 -18 11 -10 155 -12 161 -2 7 11 -28 21
-70 19 -16 0 -42 2 -56 6 -16 4 -29 2 -34 -5z"/>
<path d="M3350 5617 c0 -26 11 -47 26 -47 20 0 17 24 -6 45 -17 16 -20 16 -20
2z"/>
<path d="M3410 5531 c0 -30 38 -93 54 -88 22 7 16 33 -19 72 -32 37 -34 38
-35 16z"/>
<path d="M870 5520 c6 -11 21 -20 34 -20 13 0 45 -9 71 -21 34 -15 50 -18 58
-10 7 7 7 14 2 19 -18 14 -85 33 -95 27 -6 -4 -24 1 -42 9 -40 20 -41 20 -28
-4z"/>
<path d="M294 5476 c-10 -41 -1 -91 19 -94 14 -3 17 4 17 35 0 73 -23 111 -36
59z"/>
<path d="M8413 5471 c-128 -59 -184 -79 -249 -91 -27 -4 -78 -13 -113 -20 -35
-6 -72 -15 -82 -20 -10 -6 -29 -10 -43 -10 -14 0 -40 -6 -58 -14 -33 -13 -88
-30 -203 -62 -33 -9 -76 -22 -95 -29 -19 -7 -62 -20 -95 -29 -33 -10 -73 -22
-90 -27 -27 -9 -79 -25 -160 -49 -16 -4 -43 -13 -60 -18 -16 -6 -57 -18 -90
-27 -33 -9 -78 -23 -100 -30 -22 -6 -65 -19 -95 -28 -64 -18 -212 -62 -360
-107 -114 -35 -163 -49 -255 -76 -66 -19 -139 -40 -200 -59 -22 -6 -67 -20
-100 -30 -33 -9 -71 -22 -85 -27 -14 -6 -41 -14 -60 -18 -19 -5 -48 -13 -65
-19 -16 -6 -77 -25 -135 -42 -58 -17 -143 -44 -190 -59 -47 -15 -112 -35 -145
-45 -33 -10 -91 -29 -130 -43 -38 -13 -86 -28 -105 -32 -19 -5 -60 -16 -90
-26 -30 -9 -75 -22 -100 -29 -25 -8 -58 -18 -75 -24 -16 -5 -77 -24 -135 -43
-58 -18 -109 -36 -114 -40 -11 -8 82 -52 144 -68 72 -18 242 -70 278 -86 18
-8 41 -14 51 -14 10 0 32 -7 47 -15 16 -8 38 -15 49 -15 11 0 29 -7 39 -15 11
-8 30 -15 42 -15 12 0 35 -7 50 -15 16 -8 39 -15 51 -15 12 0 24 -4 27 -9 3
-5 21 -12 40 -15 20 -4 48 -13 63 -21 15 -8 35 -15 43 -15 16 -1 109 -31 125
-42 6 -3 27 -9 48 -13 20 -4 39 -11 42 -15 3 -5 23 -11 45 -15 22 -4 42 -10
45 -15 3 -5 23 -11 45 -15 22 -4 42 -11 46 -16 3 -5 13 -9 22 -9 9 0 29 -6 44
-14 14 -8 45 -17 67 -21 23 -4 43 -11 47 -16 3 -5 12 -9 21 -9 8 0 29 -6 46
-14 18 -7 64 -24 102 -36 39 -12 75 -26 80 -30 6 -4 24 -10 40 -14 17 -4 38
-14 47 -23 20 -18 36 -8 165 102 45 39 105 88 134 110 29 22 77 59 108 83 50
39 161 133 305 262 28 25 68 58 88 74 31 23 37 33 32 52 -5 19 -2 24 13 24 10
0 25 -6 32 -12 10 -11 15 -9 27 6 8 11 12 28 9 37 -7 21 4 28 49 34 19 3 50
14 68 25 29 18 32 23 29 62 -1 24 -5 45 -8 48 -8 9 -33 -33 -33 -57 0 -13 -4
-23 -10 -23 -5 0 -10 5 -10 10 0 17 -70 0 -104 -23 -16 -12 -41 -21 -55 -21
-21 -1 -26 -5 -24 -24 2 -16 -4 -25 -22 -32 -14 -5 -29 -20 -34 -33 -10 -26
-29 -37 -67 -37 -21 0 -42 -14 -105 -72 -10 -10 -29 -18 -40 -18 -18 0 -19 -3
-9 -15 17 -21 3 -35 -29 -29 -24 5 -31 1 -50 -29 -11 -19 -41 -45 -66 -58 -25
-13 -45 -27 -45 -31 0 -4 -18 -17 -40 -28 -26 -13 -40 -27 -40 -39 0 -19 -48
-51 -75 -51 -12 0 -55 -53 -55 -68 0 -4 -16 -14 -35 -21 -19 -6 -50 -30 -68
-52 -29 -33 -40 -39 -74 -39 -22 0 -66 9 -98 19 -33 11 -62 18 -66 15 -4 -2
-30 7 -58 22 -29 14 -68 28 -89 31 -20 3 -41 9 -47 13 -17 14 -164 60 -189 60
-13 0 -29 7 -36 15 -7 8 -21 15 -31 15 -11 0 -45 9 -77 21 -31 11 -81 27 -110
35 -30 8 -63 20 -75 26 -12 7 -44 18 -72 25 -156 37 -208 53 -260 80 -16 9
-48 19 -70 23 -103 20 -178 48 -207 80 -16 18 -28 34 -26 35 9 9 196 75 213
75 11 0 37 9 58 20 20 11 49 20 64 20 31 0 81 15 139 41 23 11 49 19 58 19 9
0 33 9 53 20 21 11 50 20 65 20 15 0 30 5 33 10 3 6 18 10 33 10 15 0 45 9 66
20 21 10 62 21 90 24 28 2 69 14 91 26 27 14 51 20 73 16 25 -4 35 0 45 15 8
12 23 19 45 19 18 0 57 11 85 24 58 27 165 55 240 61 27 2 54 8 60 13 22 17
137 52 171 52 18 0 39 6 45 14 6 7 35 17 63 20 28 4 56 13 62 20 11 13 117 46
223 70 28 6 55 15 59 19 4 4 17 7 28 7 12 0 33 6 48 14 14 8 46 17 70 21 24 4
75 17 113 30 39 13 89 27 112 30 24 4 45 11 49 16 3 5 13 9 22 9 10 0 37 11
62 23 25 13 87 32 139 42 52 10 109 24 128 31 18 8 42 14 54 14 13 0 30 6 38
13 31 25 149 58 185 51 28 -5 36 -2 45 15 7 13 22 21 37 21 14 0 33 4 42 9 9
4 32 11 50 14 27 6 32 3 32 -12 0 -10 -7 -21 -15 -25 -21 -8 -19 -36 3 -36 15
0 147 96 162 119 3 4 23 21 45 37 65 47 85 67 85 86 0 23 -24 23 -77 -1z
m-3620 -1186 c-4 -15 -36 -12 -41 3 -3 9 3 13 19 10 13 -1 23 -7 22 -13z"/>
<path d="M440 5461 c0 -22 126 -161 145 -161 7 0 18 -7 25 -15 20 -24 100 -75
100 -64 0 5 -7 12 -15 15 -8 4 -15 11 -15 17 0 5 -25 34 -56 64 -31 30 -53 57
-49 61 3 3 9 1 13 -5 4 -6 26 -14 49 -18 24 -4 46 -11 49 -16 3 -6 14 -7 25
-4 10 4 19 2 19 -3 0 -10 25 -21 110 -47 30 -9 63 -24 73 -33 10 -9 36 -17 58
-18 22 -1 51 -9 64 -18 13 -9 41 -16 61 -16 20 0 53 -9 73 -20 39 -21 148 -50
187 -50 14 0 30 -10 40 -25 13 -20 19 -23 30 -14 11 9 23 8 52 -4 20 -8 66
-21 102 -29 44 -9 65 -18 65 -28 0 -10 9 -14 24 -12 14 1 52 -7 85 -19 34 -12
72 -21 86 -21 14 0 30 -4 35 -8 6 -4 30 -10 55 -14 24 -4 51 -13 60 -20 8 -7
36 -16 63 -19 26 -4 58 -14 71 -22 13 -9 52 -22 88 -29 36 -7 74 -19 86 -25
11 -6 34 -11 50 -11 16 0 32 -3 36 -7 18 -18 89 -35 158 -38 63 -3 85 -9 132
-36 55 -30 58 -31 76 -14 45 41 13 73 -116 114 -144 45 -181 57 -254 76 -36 9
-83 23 -105 30 -22 7 -65 20 -95 29 -117 34 -267 78 -320 93 -30 9 -73 22 -95
28 -22 7 -67 21 -100 30 -33 10 -78 24 -100 31 -75 23 -301 90 -510 149 -33 9
-78 23 -100 30 -95 30 -117 37 -206 61 -52 14 -119 32 -149 40 -113 31 -125
34 -142 34 -11 0 -18 -7 -18 -19z"/>
<path d="M5469 5464 c-12 -14 -11 -16 5 -13 11 2 21 10 24 17 5 17 -13 15 -29
-4z"/>
<path d="M8551 5425 c-13 -19 -31 -35 -40 -35 -24 0 -41 -20 -41 -48 0 -18 -4
-23 -17 -18 -25 10 -64 -32 -57 -61 7 -25 -13 -83 -27 -83 -5 0 -9 -4 -9 -10
0 -18 30 -11 64 15 33 25 56 32 56 17 0 -9 -14 -22 -116 -99 -45 -34 -88 -68
-95 -75 -8 -7 -32 -25 -54 -40 -22 -15 -53 -39 -70 -54 -16 -14 -129 -101
-250 -192 -121 -92 -229 -174 -240 -183 -22 -19 -40 -33 -305 -233 -102 -77
-191 -146 -198 -153 -8 -7 -35 -27 -60 -45 -96 -64 -110 -88 -49 -88 24 0 48
14 97 56 36 30 94 76 130 100 95 66 186 136 260 199 36 31 95 77 132 103 90
63 265 195 308 233 19 17 53 43 75 60 22 16 74 56 115 89 41 33 91 72 112 85
20 13 52 40 71 60 19 19 41 35 49 35 14 0 36 21 147 138 52 56 67 112 31 112
-11 0 -20 5 -20 11 0 6 7 8 15 5 26 -10 46 73 29 118 -9 23 -16 20 -43 -19z"/>
<path d="M360 5410 c-23 -23 -24 -35 -9 -79 9 -26 8 -35 -6 -51 -15 -16 -15
-21 -1 -47 24 -45 320 -294 440 -371 39 -24 82 -57 96 -72 14 -15 63 -56 109
-91 46 -35 99 -75 117 -89 18 -14 52 -39 76 -57 23 -18 63 -48 88 -68 25 -19
59 -45 77 -58 59 -42 318 -237 358 -270 44 -37 292 -224 359 -272 24 -16 57
-42 75 -57 35 -30 101 -40 101 -15 -1 10 -137 117 -285 222 -39 28 -167 124
-190 143 -8 6 -304 232 -449 342 -264 201 -395 301 -416 319 -14 11 -30 25
-35 29 -6 5 -35 26 -65 47 -30 21 -57 41 -60 45 -3 3 -54 43 -114 89 -146 111
-216 171 -216 184 0 14 21 7 43 -14 12 -11 54 -41 92 -67 93 -62 107 -71 128
-78 9 -3 17 -13 17 -20 0 -8 9 -14 20 -14 11 0 20 -4 20 -10 0 -5 7 -10 16
-10 10 0 4 10 -17 28 -18 15 -43 37 -56 50 -12 12 -29 22 -37 22 -8 0 -17 8
-21 19 -3 10 -30 43 -61 72 -30 30 -57 64 -60 77 -4 13 -13 21 -22 20 -12 -2
-17 5 -17 22 -1 26 -50 100 -66 100 -5 0 -18 -9 -29 -20z"/>
<path d="M3530 5376 c0 -9 16 -31 35 -50 19 -20 35 -42 35 -51 0 -8 7 -15 15
-15 21 0 19 7 -17 54 -48 62 -68 80 -68 62z"/>
<path d="M5355 5340 c-3 -5 1 -10 9 -10 8 0 18 5 21 10 3 6 -1 10 -9 10 -8 0
-18 -4 -21 -10z"/>
<path d="M5257 5183 c-4 -3 -7 -13 -7 -21 0 -12 3 -12 15 -2 8 7 15 16 15 21
0 11 -14 12 -23 2z"/>
<path d="M8324 5149 c-3 -6 -2 -15 2 -19 12 -12 38 5 30 19 -9 14 -23 14 -32
0z"/>
<path d="M8285 5110 c-3 -5 3 -10 14 -10 12 0 21 5 21 10 0 6 -6 10 -14 10 -8
0 -18 -4 -21 -10z"/>
<path d="M8205 5061 c-6 -11 9 -23 19 -14 9 9 7 23 -3 23 -6 0 -12 -4 -16 -9z"/>
<path d="M8157 5054 c-14 -14 -7 -35 11 -32 9 2 17 10 17 17 0 16 -18 25 -28
15z"/>
<path d="M8070 4985 c-7 -8 -18 -15 -25 -15 -7 0 -18 -7 -25 -15 -7 -8 -21
-15 -32 -15 -11 0 -38 -18 -60 -40 -42 -41 -65 -49 -86 -28 -9 9 -12 9 -12 0
0 -7 5 -12 11 -12 7 0 9 -11 6 -30 -8 -38 5 -39 48 -2 53 45 70 58 85 66 50
24 120 82 120 98 0 13 -17 9 -30 -7z"/>
<path d="M850 4945 c25 -27 40 -32 40 -14 0 15 -30 38 -49 39 -10 0 -7 -8 9
-25z"/>
<path d="M917 4919 c-9 -6 -17 -14 -17 -19 0 -17 27 -11 34 6 8 22 5 25 -17
13z"/>
<path d="M1110 4875 c0 -9 42 -47 47 -42 2 3 -5 15 -16 26 -21 21 -31 26 -31
16z"/>
<path d="M4536 4828 c-9 -36 -7 -86 4 -93 6 -4 10 17 10 54 0 65 -4 75 -14 39z"/>
<path d="M1233 4793 c-14 -5 -17 -31 -7 -56 7 -20 54 1 54 25 0 19 -28 38 -47
31z"/>
<path d="M7772 4786 c-14 -22 -76 -59 -101 -60 -19 -1 -27 -7 -29 -23 -4 -26
-14 -28 -42 -11 -25 16 -49 3 -68 -35 -8 -17 -21 -27 -35 -27 -25 0 -67 -26
-67 -40 0 -5 9 -14 21 -20 15 -9 24 -8 36 2 8 7 27 11 42 10 16 -2 35 5 48 18
12 11 29 20 38 20 8 0 19 10 24 23 11 28 39 52 71 62 14 4 36 16 50 27 14 10
36 27 49 37 l24 18 -27 5 c-14 3 -30 0 -34 -6z"/>
<path d="M2880 4751 c0 -5 -12 -23 -26 -40 -40 -48 -104 -186 -93 -202 14 -23
139 116 139 155 0 15 21 26 48 26 12 0 13 -3 4 -12 -7 -7 -12 -16 -12 -21 0
-14 66 -36 90 -30 16 4 27 0 39 -16 11 -14 30 -23 61 -26 83 -8 125 -17 160
-36 19 -11 45 -19 57 -19 12 0 50 -11 85 -24 35 -13 79 -29 98 -36 19 -7 44
-17 55 -23 11 -6 36 -10 56 -8 24 1 55 -9 93 -29 32 -16 68 -30 80 -30 11 0
35 -9 51 -20 17 -11 46 -20 66 -20 20 0 42 -7 49 -15 7 -8 18 -15 25 -15 17 0
65 -46 65 -63 0 -10 -20 -18 -60 -26 -37 -7 -60 -17 -60 -25 0 -8 -16 -16 -36
-19 -20 -3 -66 -17 -103 -30 -127 -47 -226 -79 -266 -87 -22 -4 -71 -20 -110
-35 -38 -15 -104 -38 -145 -53 -41 -14 -91 -31 -110 -38 -19 -6 -55 -18 -80
-25 -25 -7 -52 -18 -60 -24 -8 -6 -51 -20 -95 -30 -44 -10 -102 -29 -129 -42
-28 -12 -66 -23 -85 -23 -20 0 -51 -9 -69 -20 -35 -21 -67 -26 -77 -11 -3 5
-18 12 -33 16 -33 7 -112 74 -112 95 0 15 -85 90 -101 90 -5 0 -9 9 -9 19 0
27 -21 37 -35 18 -17 -24 -39 -22 -32 3 6 24 -32 64 -152 158 -136 106 -159
122 -175 122 -9 0 -22 13 -31 29 -8 16 -24 32 -35 36 -11 3 -38 22 -61 41 -22
19 -44 34 -48 34 -4 0 -22 16 -41 35 -19 19 -40 35 -45 35 -6 0 -27 14 -48 31
-21 17 -49 31 -66 31 -20 1 -32 8 -40 24 -6 13 -15 24 -20 24 -17 0 -33 -29
-26 -50 5 -15 15 -20 42 -20 26 0 36 -5 40 -20 3 -11 21 -29 39 -41 19 -11 34
-27 34 -35 0 -27 30 -73 43 -68 17 6 61 -41 52 -55 -8 -15 38 -14 52 0 15 15
58 -8 45 -24 -5 -7 -12 -20 -15 -30 -5 -14 -3 -17 11 -13 12 4 38 -10 80 -44
34 -27 71 -50 81 -50 23 0 32 -12 47 -60 8 -27 15 -34 32 -33 12 2 22 -2 22
-7 0 -13 32 -50 44 -50 5 0 47 -37 92 -82 46 -46 89 -87 96 -93 32 -24 136
-112 162 -137 30 -28 60 -36 70 -19 3 5 23 12 43 15 40 7 107 29 160 52 17 8
40 14 51 14 11 0 33 7 48 15 16 8 38 15 50 15 11 0 24 4 30 9 5 6 27 14 49 20
43 10 91 26 142 48 17 7 40 13 50 13 10 0 23 4 29 9 5 6 27 14 49 20 43 10 91
26 142 48 17 7 38 13 47 13 9 0 24 4 34 9 9 6 51 20 92 31 41 12 84 25 95 29
36 14 119 39 152 46 18 4 35 11 38 16 4 5 15 9 25 9 16 0 137 35 245 71 101
33 254 79 269 79 6 1 24 12 41 25 21 17 25 25 15 28 -8 2 -33 9 -55 14 -22 6
-94 27 -160 47 -66 20 -165 50 -220 67 -55 17 -143 44 -195 60 -109 34 -161
50 -245 74 -33 10 -71 22 -85 28 -14 5 -41 13 -60 18 -19 4 -57 15 -85 23
-101 31 -151 46 -195 57 -25 6 -61 17 -80 24 -110 40 -180 54 -180 36z"/>
<path d="M1260 4692 c0 -14 11 -21 26 -15 21 8 17 23 -6 23 -11 0 -20 -4 -20
-8z"/>
<path d="M2709 4693 c-10 -2 -20 -14 -23 -26 -16 -59 4 -64 27 -7 8 22 15 39
14 39 -1 -1 -9 -3 -18 -6z"/>
<path d="M1385 4678 c-11 -7 -29 -12 -39 -13 -26 -2 -33 -25 -9 -27 37 -3 56
3 69 20 25 32 15 41 -21 20z"/>
<path d="M1430 4635 c0 -20 5 -25 25 -25 30 0 32 11 7 33 -25 23 -32 21 -32
-8z"/>
<path d="M2642 4599 c2 -6 8 -10 13 -10 5 0 11 4 13 10 2 6 -4 11 -13 11 -9 0
-15 -5 -13 -11z"/>
<path d="M4445 4218 c-10 -18 -23 -37 -27 -43 -5 -5 -47 -62 -93 -125 -46 -63
-119 -161 -162 -218 -43 -57 -85 -113 -93 -126 -8 -12 -44 -60 -80 -106 -36
-47 -77 -102 -90 -122 -14 -21 -28 -38 -31 -38 -3 0 -23 -27 -44 -60 -21 -33
-42 -60 -46 -60 -4 0 -18 -17 -30 -37 -13 -21 -28 -43 -34 -49 -44 -47 -75
-84 -75 -90 0 -3 -13 -23 -30 -44 -16 -21 -30 -43 -30 -49 0 -6 -7 -11 -15
-11 -8 0 -15 -9 -15 -20 0 -11 -4 -20 -10 -20 -5 0 -10 -7 -10 -15 0 -8 -9
-19 -20 -25 -11 -6 -20 -17 -20 -24 0 -8 -7 -16 -15 -20 -8 -3 -15 -12 -15
-21 0 -8 -7 -15 -15 -15 -8 0 -15 -7 -15 -15 0 -8 -13 -28 -30 -45 -16 -17
-30 -35 -30 -40 0 -6 -7 -10 -15 -10 -8 0 -15 -7 -15 -16 0 -21 -182 -264
-197 -264 -7 0 -13 -6 -13 -14 0 -8 -13 -28 -30 -46 -16 -18 -30 -36 -30 -41
0 -5 -7 -12 -15 -15 -8 -4 -15 -12 -15 -19 0 -7 -3 -15 -7 -17 -9 -4 -53 -65
-53 -73 0 -3 -9 -15 -20 -27 -11 -12 -32 -40 -47 -62 -16 -22 -38 -52 -50 -66
-12 -14 -31 -36 -42 -49 -12 -13 -21 -27 -21 -30 0 -4 -20 -28 -44 -54 -25
-25 -61 -71 -81 -102 -20 -30 -40 -55 -43 -55 -4 0 -18 -17 -32 -37 -25 -38
-59 -80 -92 -115 -10 -10 -18 -22 -18 -27 0 -5 -18 -28 -40 -52 -22 -24 -53
-62 -68 -84 -15 -22 -37 -51 -49 -65 -13 -14 -23 -28 -23 -31 0 -4 -29 -44
-65 -89 -36 -45 -65 -85 -65 -89 0 -3 -10 -18 -22 -31 -24 -26 -33 -39 -109
-150 -39 -57 -69 -112 -69 -125 0 -3 8 -5 18 -5 22 0 111 80 132 118 25 49 79
115 102 126 12 6 28 30 35 53 11 31 23 45 49 58 18 9 34 21 34 28 0 23 97 162
156 224 68 72 103 115 123 152 15 27 67 93 114 145 59 64 65 72 81 104 9 18
28 38 41 44 14 6 25 20 25 31 0 10 20 38 44 61 24 22 52 57 61 76 10 19 39 62
64 95 26 33 59 79 74 101 15 23 48 62 72 88 25 25 45 49 45 52 0 10 46 70 87
114 23 25 49 62 58 83 9 21 22 40 31 44 8 3 24 23 34 44 11 21 29 43 40 49 11
6 20 15 20 21 0 11 46 71 98 127 17 19 32 40 32 47 0 6 18 29 40 50 22 21 40
45 40 52 0 16 55 95 101 143 20 21 44 51 52 67 8 15 23 44 34 64 11 20 31 49
46 65 15 16 27 32 27 36 0 4 14 21 30 38 17 17 30 34 30 38 0 4 22 38 49 76
27 38 55 81 62 97 6 16 17 29 24 29 14 0 45 42 45 61 0 6 14 28 30 49 17 21
30 41 30 45 0 4 14 24 30 45 17 21 30 43 30 49 0 9 35 51 43 51 1 0 1 -39 1
-87 -1 -49 4 -126 12 -173 8 -54 10 -88 4 -94 -22 -22 -2 -144 21 -130 5 3 10
62 10 132 2 246 13 387 28 387 8 0 18 -12 22 -27 12 -47 19 -350 19 -963 1
-330 5 -606 9 -613 15 -25 31 13 29 69 -1 30 -1 218 0 419 2 201 0 493 -2 649
-6 291 -1 336 30 310 8 -6 14 -16 14 -21 0 -4 14 -23 30 -41 61 -65 140 -162
140 -172 0 -6 25 -39 55 -73 30 -35 58 -75 61 -90 7 -27 15 -39 129 -174 36
-42 65 -81 65 -86 0 -5 9 -17 20 -27 11 -10 20 -24 20 -31 0 -7 8 -19 18 -26
9 -7 25 -25 35 -40 9 -15 37 -52 62 -83 26 -31 57 -77 71 -102 13 -25 33 -52
44 -60 11 -8 40 -44 65 -81 84 -123 107 -153 130 -168 13 -9 29 -30 34 -47 6
-18 33 -54 61 -82 27 -27 50 -54 50 -59 0 -5 7 -16 15 -25 32 -34 85 -103 85
-111 0 -5 21 -31 48 -57 26 -26 55 -62 64 -78 32 -55 43 -69 115 -155 102
-120 108 -128 152 -196 21 -34 44 -63 49 -65 6 -2 38 -39 71 -82 33 -43 71
-87 85 -98 15 -11 26 -24 26 -29 0 -4 14 -23 31 -41 18 -19 43 -51 56 -72 13
-21 34 -42 47 -48 25 -12 56 -58 56 -83 0 -9 4 -16 9 -16 12 0 201 -215 201
-229 0 -6 14 -17 30 -26 17 -9 30 -21 30 -28 0 -15 79 -81 87 -73 4 3 -1 14
-10 24 -10 10 -17 21 -17 24 0 8 -98 149 -150 217 -11 14 -99 132 -196 261
-97 129 -189 247 -205 262 -16 15 -29 33 -29 40 0 7 -9 19 -20 26 -11 6 -31
34 -45 62 -14 27 -30 50 -35 50 -6 0 -10 6 -10 13 0 7 -13 27 -29 45 -16 17
-31 40 -33 49 -2 11 -11 17 -22 15 -10 -2 -15 1 -12 7 4 6 -2 16 -14 23 -11 7
-20 16 -20 21 0 4 -13 21 -30 37 -16 16 -30 33 -30 38 0 17 -31 72 -41 72 -5
0 -9 7 -9 15 0 9 -5 21 -10 28 -6 7 -26 30 -45 52 -19 22 -35 46 -35 53 0 6
-7 12 -15 12 -8 0 -15 5 -15 11 0 6 -18 30 -39 53 -22 22 -57 59 -78 81 -53
57 -74 91 -66 111 5 13 2 15 -16 9 -20 -6 -22 -4 -17 13 5 15 1 24 -14 32 -11
6 -19 19 -18 28 2 12 -3 16 -15 14 -15 -3 -17 1 -12 19 6 18 4 21 -9 16 -11
-4 -19 0 -23 11 -3 9 -19 29 -34 44 -16 14 -38 44 -49 65 -11 22 -30 50 -43
63 -12 14 -22 31 -22 40 0 8 -8 14 -17 12 -12 -2 -15 3 -11 17 4 16 -37 84
-94 156 -5 6 -16 22 -25 36 -9 14 -23 32 -30 40 -8 8 -38 46 -67 84 -30 39
-57 72 -61 75 -3 3 -43 55 -88 115 -45 61 -85 115 -90 120 -4 6 -45 60 -90
120 -105 141 -123 164 -147 192 -25 29 -60 76 -135 181 -33 45 -66 82 -73 82
-7 0 -21 -15 -32 -32z"/>
<path d="M3565 3927 c-28 -21 -2 -29 34 -11 17 8 31 17 31 20 0 10 -48 3 -65
-9z"/>
<path d="M3466 3895 c-15 -8 -37 -15 -48 -15 -11 0 -32 -6 -46 -14 -15 -8 -56
-22 -92 -31 -36 -9 -77 -23 -92 -31 -14 -8 -36 -14 -48 -14 -12 0 -34 -6 -48
-14 -34 -17 -90 -37 -122 -43 -14 -2 -38 -11 -55 -18 -88 -38 -108 -45 -128
-45 -13 0 -32 -7 -43 -15 -10 -8 -30 -15 -44 -15 -15 0 -31 -5 -36 -10 -6 -6
-35 -13 -64 -17 -50 -6 -61 -12 -97 -57 -7 -8 -13 -28 -13 -44 0 -15 -7 -37
-15 -48 -8 -10 -15 -33 -15 -49 0 -17 -6 -39 -14 -50 -7 -11 -16 -37 -20 -57
-4 -20 -13 -50 -21 -65 -8 -15 -15 -45 -15 -65 0 -20 -4 -39 -9 -42 -4 -3 -11
-25 -14 -49 -3 -23 -13 -56 -21 -72 -9 -17 -16 -42 -16 -56 0 -15 -7 -40 -15
-55 -8 -16 -15 -43 -15 -61 0 -17 -4 -34 -9 -38 -6 -3 -13 -26 -17 -50 -3 -25
-10 -48 -15 -50 -4 -3 -11 -27 -15 -53 -3 -26 -10 -52 -15 -58 -5 -6 -13 -31
-18 -55 -5 -24 -14 -57 -19 -74 -32 -93 -72 -233 -72 -252 0 -12 -6 -37 -14
-55 -7 -18 -21 -60 -30 -93 -10 -33 -22 -73 -28 -90 -5 -16 -14 -48 -18 -70
-4 -22 -13 -53 -18 -70 -6 -16 -18 -59 -27 -95 -9 -36 -21 -78 -26 -95 -6 -16
-17 -52 -24 -80 -7 -27 -20 -75 -29 -105 -9 -30 -20 -78 -25 -107 -5 -28 -14
-59 -19 -70 -11 -21 -33 -120 -39 -181 -4 -33 -9 -42 -22 -40 -12 3 -15 13
-13 40 1 20 -1 39 -6 42 -10 6 -29 -165 -25 -215 9 -98 121 -228 213 -248 146
-31 221 -5 465 164 47 33 94 65 103 70 9 6 57 37 105 70 48 33 105 71 126 85
21 14 56 38 77 53 21 16 73 51 114 78 41 27 116 79 165 114 50 35 113 78 142
95 28 17 53 34 55 39 3 8 126 94 308 214 41 28 76 51 78 52 1 1 7 16 12 34 12
43 -11 41 -77 -6 -28 -21 -81 -58 -117 -83 -58 -40 -78 -54 -121 -87 -5 -5
-46 -32 -90 -62 -104 -70 -201 -137 -245 -170 -19 -14 -43 -30 -52 -36 -9 -5
-70 -46 -135 -91 -65 -44 -161 -110 -213 -145 -52 -35 -97 -66 -100 -70 -3 -3
-23 -16 -45 -29 -22 -13 -42 -27 -45 -30 -11 -13 -182 -124 -210 -136 -8 -3
-29 -12 -47 -20 -71 -32 -168 -4 -253 74 -80 71 -93 101 -83 183 6 47 12 64
23 64 8 0 21 8 28 17 7 9 19 15 27 12 19 -8 89 66 120 127 15 28 38 62 51 76
13 13 24 28 24 32 0 5 11 16 25 25 13 9 37 37 52 63 15 27 33 54 40 61 8 8 20
26 28 42 8 15 21 30 30 34 22 8 15 50 -8 54 -25 5 -47 -16 -47 -44 0 -12 -5
-26 -10 -29 -6 -3 -7 -17 -4 -31 5 -20 2 -26 -15 -31 -11 -3 -21 -9 -21 -14 0
-5 -6 -9 -13 -9 -19 0 -72 -59 -86 -96 -7 -17 -28 -46 -47 -65 -19 -18 -34
-41 -34 -50 0 -9 -7 -19 -15 -22 -8 -4 -21 -22 -29 -42 -19 -44 -38 -45 -54
-1 -10 28 -10 42 3 81 14 41 29 101 52 210 3 17 10 36 16 43 5 7 18 52 29 100
10 48 23 103 27 122 4 19 18 54 30 78 12 23 19 47 16 52 -10 16 22 121 41 134
9 7 14 18 10 24 -3 6 5 32 18 58 17 33 21 52 15 60 -9 11 5 52 42 126 5 10 9
30 9 45 0 43 17 94 41 119 14 15 19 29 14 43 -3 11 1 34 11 53 18 35 29 72 45
153 11 53 33 127 49 160 16 36 40 114 46 158 4 23 15 61 25 85 10 23 16 48 13
55 -3 8 2 20 11 27 8 7 15 28 15 47 0 19 9 46 21 63 17 22 20 37 16 66 -12 74
66 194 125 194 8 0 25 8 38 18 34 23 140 64 168 64 12 0 22 4 22 9 0 15 55 37
81 32 18 -3 32 1 45 15 11 11 37 24 59 28 22 4 64 17 94 30 29 13 61 24 70 24
9 0 40 11 69 25 30 14 62 25 71 25 10 0 26 9 36 20 10 11 28 20 41 20 31 0 55
10 48 21 -8 13 -35 11 -68 -6z"/>
<path d="M2427 3588 c-4 -44 -11 -86 -17 -94 -6 -7 -14 -39 -17 -71 -3 -32
-12 -67 -19 -78 -7 -11 -10 -33 -7 -48 7 -37 23 -16 23 31 0 22 5 32 15 32 11
0 15 12 15 48 1 26 7 58 15 72 8 14 14 39 15 56 0 16 7 39 15 50 22 29 18 59
-9 72 -23 10 -23 10 -29 -70z"/>
<path d="M6300 3603 c0 -5 7 -17 15 -27 8 -11 15 -37 15 -57 0 -21 6 -44 14
-51 21 -22 48 -79 43 -92 -6 -14 13 -92 29 -121 6 -11 14 -48 17 -83 3 -38 15
-84 31 -116 14 -29 26 -67 26 -84 0 -41 25 -134 43 -164 8 -13 17 -47 20 -76
4 -29 10 -58 14 -65 18 -28 42 -115 43 -152 0 -22 7 -51 15 -65 8 -14 14 -35
15 -48 0 -12 4 -30 9 -40 9 -18 39 -129 48 -177 3 -16 12 -39 19 -50 8 -11 14
-36 14 -57 0 -20 4 -39 9 -42 5 -3 21 -45 36 -93 15 -49 32 -101 37 -118 6
-16 13 -55 16 -85 2 -30 8 -59 12 -65 4 -5 11 -38 15 -73 4 -34 11 -65 16 -68
18 -11 10 -44 -11 -44 -11 0 -20 -7 -20 -15 0 -8 8 -15 18 -15 26 0 42 -20 42
-51 0 -40 -15 -44 -40 -9 -15 22 -29 30 -51 30 -19 0 -29 5 -29 15 0 9 -7 18
-15 21 -8 4 -15 15 -15 26 0 25 -43 98 -76 129 -15 13 -35 43 -45 66 -24 57
-119 174 -138 171 -26 -5 -22 -25 13 -72 20 -25 47 -68 62 -96 14 -27 30 -50
36 -50 5 0 17 -17 26 -37 39 -86 152 -237 191 -258 19 -9 30 -25 35 -45 3 -18
15 -43 26 -57 11 -14 20 -32 20 -40 0 -7 23 -43 51 -79 53 -68 88 -136 89
-168 0 -10 -31 -49 -68 -85 -57 -55 -78 -69 -129 -83 -34 -10 -76 -18 -92 -18
-36 0 -116 30 -171 65 -22 14 -42 25 -45 25 -3 0 -5 -13 -5 -29 0 -30 38 -71
65 -71 7 0 18 -6 24 -14 28 -34 126 -69 204 -74 91 -5 147 8 215 52 62 39 72
51 98 106 24 49 41 205 24 215 -6 3 -10 36 -10 72 0 37 -3 64 -6 61 -3 -4 -5
-32 -5 -63 0 -61 -13 -110 -28 -101 -4 3 -11 40 -13 81 -3 42 -10 81 -17 88
-6 6 -11 22 -11 36 0 15 -6 46 -14 71 -16 50 -37 124 -62 215 -9 33 -23 78
-30 100 -8 23 -14 50 -14 60 0 11 -6 40 -14 65 -8 25 -22 72 -31 105 -9 33
-23 78 -31 100 -7 22 -16 57 -20 78 -3 20 -10 40 -15 43 -5 3 -9 17 -9 32 0
15 -6 47 -14 72 -28 87 -56 186 -75 260 -11 41 -36 127 -56 190 -20 63 -41
133 -45 155 -5 22 -23 87 -41 145 -17 58 -37 130 -44 162 -7 31 -16 62 -21 69
-4 7 -11 31 -15 54 -9 55 -30 137 -39 156 -5 9 -12 34 -15 55 -4 22 -13 49
-21 61 -8 12 -14 28 -14 35 0 7 -14 34 -30 61 -27 41 -34 47 -65 47 -19 0 -35
-3 -35 -7z"/>
<path d="M6477 3573 c-3 -5 -1 -17 4 -28 7 -17 8 -17 8 8 1 27 -4 34 -12 20z"/>
<path d="M4417 3513 c-8 -14 -20 -303 -18 -423 2 -106 12 -147 31 -135 12 7
13 565 1 565 -5 0 -12 -3 -14 -7z"/>
<path d="M6500 3483 c0 -16 4 -34 9 -41 12 -20 23 12 15 44 -8 33 -24 30 -24
-3z"/>
<path d="M6530 3365 c0 -22 6 -38 15 -41 9 -4 15 -19 15 -38 0 -43 10 -77 21
-70 15 9 10 81 -6 98 -8 8 -15 24 -15 34 0 27 -10 52 -21 52 -5 0 -9 -16 -9
-35z"/>
<path d="M2341 3203 c0 -36 3 -43 9 -28 12 28 12 63 0 70 -6 4 -10 -12 -9 -42z"/>
<path d="M6594 3176 c-8 -22 -1 -59 14 -64 8 -2 12 8 12 32 0 37 -16 57 -26
32z"/>
<path d="M2304 3090 c-4 -22 -11 -43 -15 -46 -5 -3 -9 -29 -9 -57 0 -37 3 -48
10 -37 5 8 10 29 10 46 0 17 7 37 15 44 17 14 20 75 5 85 -5 3 -12 -12 -16
-35z"/>
<path d="M6620 3061 c0 -37 10 -62 21 -55 10 6 12 45 3 68 -10 26 -24 18 -24
-13z"/>
<path d="M6650 2938 c0 -42 16 -71 25 -46 10 24 2 71 -12 76 -9 2 -13 -7 -13
-30z"/>
<path d="M2252 2907 c-7 -16 -12 -39 -12 -52 0 -13 -4 -26 -9 -29 -4 -3 -11
-25 -15 -48 -4 -23 -11 -47 -16 -53 -9 -11 -14 -47 -11 -80 1 -17 3 -18 11 -5
5 8 10 27 10 41 0 15 7 32 15 39 9 8 15 30 15 56 0 24 4 44 10 44 11 0 23 59
18 91 -4 24 -5 24 -16 -4z"/>
<path d="M4404 2865 c-3 -8 -4 -99 -2 -202 2 -103 2 -199 -2 -212 -4 -16 -28
-39 -72 -66 -36 -22 -78 -55 -92 -72 -14 -17 -38 -34 -53 -38 -28 -7 -95 -54
-128 -91 -11 -12 -47 -37 -80 -55 -90 -48 -102 -58 -123 -93 -14 -23 -42 -44
-95 -70 -42 -21 -83 -49 -92 -62 -8 -13 -22 -24 -29 -24 -8 0 -22 -12 -31 -27
-10 -16 -27 -36 -39 -45 -16 -13 -18 -20 -9 -29 10 -10 15 -10 27 0 8 7 45 27
83 46 58 29 186 106 218 132 6 5 26 20 45 33 19 13 40 28 45 32 23 19 208 138
214 138 3 0 29 18 56 40 28 22 54 40 59 40 5 0 16 7 25 15 9 8 37 34 63 58
l47 43 -4 65 c-8 107 -7 198 0 332 7 114 6 127 -9 127 -9 0 -19 -7 -22 -15z"/>
<path d="M6686 2833 c-4 -13 -3 -31 3 -40 9 -17 10 -17 17 0 3 10 2 28 -3 40
l-10 22 -7 -22z"/>
<path d="M6717 2737 c-3 -9 -2 -27 2 -39 8 -21 10 -21 16 -5 4 10 3 28 -2 39
-8 19 -10 20 -16 5z"/>
<path d="M6744 2616 c-8 -22 4 -68 16 -61 13 8 13 62 0 70 -6 3 -13 -1 -16 -9z"/>
<path d="M2161 2565 c0 -35 2 -37 11 -19 7 15 7 28 -1 40 -9 16 -10 12 -10
-21z"/>
<path d="M6776 2485 c-3 -10 -2 -23 4 -29 15 -15 24 1 13 26 -9 20 -10 20 -17
3z"/>
<path d="M2130 2459 c0 -17 4 -28 10 -24 6 3 10 17 10 31 0 13 -4 24 -10 24
-5 0 -10 -14 -10 -31z"/>
<path d="M4516 2423 c-4 -21 -9 -45 -12 -54 -4 -14 46 -57 152 -129 12 -8 50
-36 85 -62 35 -27 118 -84 184 -128 66 -45 154 -105 195 -135 41 -30 82 -58
90 -61 8 -4 29 -19 47 -33 57 -45 87 -66 138 -96 28 -15 70 -45 94 -66 23 -21
60 -46 82 -56 21 -10 39 -22 39 -28 0 -5 19 -21 42 -35 22 -14 56 -34 74 -45
18 -11 52 -37 76 -59 24 -21 59 -45 78 -53 19 -8 39 -21 43 -29 4 -7 38 -34
75 -58 104 -69 155 -106 182 -131 14 -13 70 -53 125 -89 55 -36 132 -87 170
-114 112 -78 214 -119 161 -64 -9 9 -26 29 -37 45 -11 15 -35 35 -52 44 -18 9
-54 36 -81 59 -26 24 -53 44 -60 44 -7 0 -50 29 -96 65 -47 36 -90 65 -97 65
-6 0 -20 11 -31 25 -11 14 -39 33 -63 44 -24 10 -57 33 -73 50 -17 17 -38 31
-49 31 -10 0 -21 8 -24 19 -3 10 -22 27 -44 36 -21 10 -55 33 -74 52 -23 22
-44 33 -64 33 -23 0 -31 6 -39 30 -8 21 -20 32 -44 38 -26 7 -32 13 -30 31 2
18 -2 21 -18 16 -15 -5 -30 4 -58 34 -22 23 -47 41 -59 41 -13 0 -31 13 -43
30 -15 22 -30 30 -50 30 -19 0 -33 7 -40 20 -6 11 -15 20 -21 20 -6 0 -39 29
-73 64 -34 35 -79 71 -99 81 -20 9 -39 25 -42 36 -5 14 -16 19 -42 19 -32 0
-35 2 -29 25 5 20 1 27 -23 40 -17 8 -39 15 -50 15 -13 0 -18 5 -15 14 7 18
-49 64 -89 71 -23 5 -36 15 -47 38 -15 31 -37 46 -133 87 -45 19 -56 28 -51
42 3 10 0 18 -6 18 -6 0 -24 10 -39 21 -16 12 -34 18 -40 15 -13 -8 -50 22
-62 52 -13 33 -26 27 -33 -15z"/>
<path d="M6806 2393 c-4 -13 -3 -31 3 -40 9 -17 10 -17 17 0 3 10 2 28 -3 40
l-10 22 -7 -22z"/>
<path d="M6139 2284 c8 -29 35 -53 47 -41 14 14 -11 62 -33 65 -19 3 -21 0
-14 -24z"/>
<path d="M2805 2290 c-8 -13 4 -32 16 -25 12 8 12 35 0 35 -6 0 -13 -4 -16
-10z"/>
<path d="M6842 2270 c0 -19 2 -27 5 -17 2 9 2 25 0 35 -3 9 -5 1 -5 -18z"/>
<path d="M4530 2264 c0 -15 40 -56 52 -52 16 6 10 23 -9 27 -10 2 -23 11 -30
20 -7 9 -13 11 -13 5z"/>
<path d="M6217 2204 c-4 -4 -4 -10 -2 -14 6 -10 45 0 45 11 0 10 -33 12 -43 3z"/>
<path d="M2703 2159 c-20 -30 -21 -59 -2 -59 8 0 59 73 59 85 0 17 -39 0 -57
-26z"/>
<path d="M6865 2180 c-10 -16 4 -62 15 -55 13 8 13 52 1 60 -5 3 -13 0 -16 -5z"/>
<path d="M2040 2124 c0 -14 4 -23 10 -19 6 3 10 15 10 26 0 10 -4 19 -10 19
-5 0 -10 -12 -10 -26z"/>
<path d="M6270 2124 c0 -26 60 -110 75 -103 20 9 2 53 -36 89 -36 34 -39 35
-39 14z"/>
<path d="M2640 2071 c0 -6 -11 -22 -25 -37 -14 -15 -25 -30 -25 -34 0 -4 -18
-25 -40 -46 -22 -22 -40 -44 -40 -51 0 -7 -6 -16 -14 -20 -7 -4 -23 -27 -35
-50 -12 -24 -25 -43 -30 -43 -5 0 -12 -13 -16 -30 -6 -25 -9 -28 -25 -20 -24
13 -29 4 -23 -37 6 -38 25 -43 42 -10 13 24 53 83 73 107 7 8 29 39 49 70 20
30 45 64 55 75 34 35 84 109 84 122 0 7 -7 13 -15 13 -8 0 -15 -4 -15 -9z"/>
<path d="M4820 2054 c0 -9 44 -54 53 -54 4 0 7 7 7 15 0 8 -6 15 -14 15 -8 0
-16 7 -20 15 -5 14 -26 21 -26 9z"/>
<path d="M6365 2000 c-9 -15 42 -80 62 -80 12 0 14 7 9 32 -3 17 -11 37 -17
45 -14 16 -45 17 -54 3z"/>
<path d="M6927 1963 c-2 -5 -1 -19 4 -33 7 -23 7 -23 8 8 1 31 -3 40 -12 25z"/>
<path d="M6962 1810 c0 -19 2 -27 5 -17 2 9 2 25 0 35 -3 9 -5 1 -5 -18z"/>
<path d="M1950 1795 c0 -15 4 -24 10 -20 6 3 10 12 10 20 0 8 -4 17 -10 20 -6
4 -10 -5 -10 -20z"/>
<path d="M5150 1806 c0 -9 7 -16 16 -16 17 0 14 22 -4 28 -7 2 -12 -3 -12 -12z"/>
<path d="M5190 1784 c0 -14 52 -54 63 -47 5 3 1 10 -9 16 -11 5 -27 17 -36 25
-10 8 -18 11 -18 6z"/>
<path d="M5362 1659 c2 -7 10 -15 17 -17 8 -3 12 1 9 9 -2 7 -10 15 -17 17 -8
3 -12 -1 -9 -9z"/>
<path d="M5450 1595 c0 -8 6 -15 14 -15 8 0 16 -7 20 -15 3 -8 10 -15 16 -15
5 0 10 7 10 15 0 8 -6 15 -14 15 -8 0 -16 7 -20 15 -3 8 -10 15 -16 15 -5 0
-10 -7 -10 -15z"/>
<path d="M3205 1540 c-3 -5 3 -10 14 -10 11 0 23 5 26 10 3 6 -3 10 -14 10
-11 0 -23 -4 -26 -10z"/>
<path d="M5570 1505 c0 -8 6 -15 14 -15 7 0 19 -7 26 -15 15 -18 30 -20 30 -4
0 6 -9 13 -20 16 -11 3 -20 12 -20 19 0 8 -7 14 -15 14 -8 0 -15 -7 -15 -15z"/>
<path d="M5652 1448 c7 -19 38 -22 38 -4 0 10 -9 16 -21 16 -12 0 -19 -5 -17
-12z"/>
<path d="M3004 1426 c-17 -13 -17 -15 -2 -21 18 -7 58 10 58 25 0 15 -33 12
-56 -4z"/>
<path d="M5780 1359 c0 -6 9 -13 19 -16 11 -3 22 -11 25 -19 3 -8 15 -14 26
-14 11 0 20 -7 20 -15 0 -8 7 -15 15 -15 21 0 19 26 -2 34 -24 9 -62 31 -76
45 -14 14 -27 14 -27 0z"/>
<path d="M7113 1245 c0 -22 2 -30 4 -17 2 12 2 30 0 40 -3 9 -5 -1 -4 -23z"/>
<path d="M1800 1246 c0 -22 3 -27 11 -19 8 8 8 16 0 30 -9 16 -10 14 -11 -11z"/>
<path d="M5960 1236 c0 -9 7 -16 16 -16 9 0 14 5 12 12 -6 18 -28 21 -28 4z"/>
<path d="M2695 1189 c-10 -15 1 -23 20 -15 9 3 13 10 10 16 -8 13 -22 13 -30
-1z"/>
<path d="M6052 1181 c4 -13 18 -16 19 -4 0 4 -5 9 -11 12 -7 2 -11 -2 -8 -8z"/>
<path d="M6260 1025 c0 -8 7 -15 15 -15 8 0 15 7 15 15 0 8 -7 15 -15 15 -8 0
-15 -7 -15 -15z"/>
<path d="M6355 970 c-8 -13 15 -24 27 -12 6 6 4 11 -6 15 -8 3 -18 2 -21 -3z"/>
<path d="M2350 950 c-12 -8 -11 -10 8 -10 12 0 22 5 22 10 0 13 -11 13 -30 0z"/>
</g>
</svg>
