<?xml version="1.0" standalone="no"?>
<!DOCTYPE svg PUBLIC "-//W3C//DTD SVG 20010904//EN"
 "http://www.w3.org/TR/2001/REC-SVG-20010904/DTD/svg10.dtd">
<svg version="1.0" xmlns="http://www.w3.org/2000/svg"
 width="300.000000pt" height="290.000000pt" viewBox="0 0 300.000000 290.000000"
 preserveAspectRatio="xMidYMid meet">
<metadata>
Created by potrace 1.10, written by Peter Selinger 2001-2011
</metadata>
<g transform="translate(0.000000,290.000000) scale(0.100000,-0.100000)"
fill="#000000" stroke="none">
<path d="M1750 2840 c0 -6 -11 -22 -25 -36 l-25 -25 32 -33 31 -33 34 33 34
34 -35 35 c-37 37 -46 42 -46 25z m49 -47 c14 -10 13 -14 -10 -37 l-26 -26
-23 25 -22 24 23 29 c21 25 25 27 33 13 5 -9 17 -21 25 -28z"/>
<path d="M350 2636 c0 -3 9 -13 19 -23 19 -18 19 -18 -1 -43 -18 -22 -21 -23
-29 -7 -6 9 -20 22 -32 28 -19 10 -18 8 4 -14 15 -14 30 -32 33 -39 5 -10 7
-10 12 1 4 7 15 22 25 32 11 11 19 22 19 27 -1 8 -50 46 -50 38z"/>
<path d="M2677 2518 l-28 -30 26 -24 c32 -30 34 -30 64 2 l24 25 -21 15 c-12
8 -22 22 -22 30 0 20 -11 16 -43 -18z"/>
<path d="M702 2499 c-173 -46 -313 -150 -409 -304 -38 -61 -76 -155 -63 -155
6 0 10 6 10 13 0 6 19 50 42 97 33 65 61 103 123 165 130 130 251 182 455 194
l125 8 -105 1 c-75 1 -126 -5 -178 -19z"/>
<path d="M1945 2510 c-51 -11 -96 -29 -73 -29 9 -1 29 4 45 10 15 7 89 15 163
19 l135 7 -115 0 c-63 1 -133 -3 -155 -7z"/>
<path d="M2265 2494 c63 -17 81 -17 35 1 -19 7 -46 13 -60 13 -15 0 -5 -5 25
-14z"/>
<path d="M1740 2433 c-81 -44 -203 -152 -231 -204 -5 -11 32 22 83 73 75 76
109 101 178 135 47 23 78 42 70 43 -8 0 -53 -21 -100 -47z"/>
<path d="M2422 2406 c79 -48 188 -155 218 -213 14 -26 30 -54 37 -61 7 -7 13
-19 13 -25 0 -7 6 -24 14 -38 14 -27 30 -79 28 -90 -1 -4 3 -22 9 -40 5 -19 9
-77 9 -129 1 -216 -89 -427 -273 -646 -113 -134 -391 -400 -587 -559 -47 -38
-87 -72 -90 -76 -11 -13 -227 -156 -253 -167 -78 -33 -140 -7 -357 152 -104
76 -146 112 -343 291 -181 165 -427 424 -427 450 0 3 -9 15 -20 27 -10 11 -26
35 -35 52 -8 17 -20 38 -25 46 -5 8 -16 33 -25 55 -9 22 -20 47 -25 56 -5 9
-18 59 -29 112 -30 140 -30 360 1 440 6 15 8 30 5 33 -8 8 -47 -123 -47 -158
0 -22 -4 -29 -14 -25 -11 5 -14 -2 -11 -26 3 -18 6 -84 9 -147 9 -257 128
-460 464 -796 181 -181 392 -364 553 -479 176 -127 249 -153 334 -121 128 49
519 367 786 641 163 167 206 217 290 344 111 167 159 315 159 495 0 92 -4 118
-33 221 -34 122 -107 237 -199 317 -88 75 -93 78 -125 84 -15 3 -37 7 -48 10
-11 3 6 -10 37 -30z"/>
<path d="M1211 2402 c48 -28 129 -92 129 -102 0 -3 -23 -6 -50 -7 -28 0 -70
-10 -93 -21 -26 -13 -129 -106 -272 -246 -126 -124 -233 -226 -237 -226 -5 0
-8 -4 -8 -9 0 -5 -25 -36 -55 -68 -89 -94 -63 -85 38 13 304 299 516 498 547
514 53 26 87 32 129 20 43 -11 101 -69 101 -100 0 -12 -44 -63 -111 -127 -62
-60 -130 -128 -153 -153 -23 -24 -72 -77 -111 -116 -73 -75 -110 -116 -134
-149 -17 -23 88 76 299 282 80 78 162 156 182 173 37 32 96 122 74 114 -6 -2
-31 24 -55 57 -24 33 -60 72 -80 87 -20 15 -38 30 -41 33 -3 4 -15 9 -28 13
-12 4 -20 12 -17 17 3 5 -1 6 -9 3 -8 -3 -28 2 -45 10 -49 26 -50 18 0 -12z"/>
<path d="M594 2357 c-30 -17 -87 -67 -83 -72 3 -2 22 12 44 31 22 19 45 34 52
34 6 0 15 5 18 10 8 13 -5 12 -31 -3z"/>
<path d="M464 2237 c-12 -17 -25 -39 -30 -47 -17 -31 25 11 45 46 26 43 13 45
-15 1z"/>
<path d="M682 2139 c-46 -45 -82 -83 -79 -85 2 -2 39 32 83 77 95 96 88 89 83
89 -2 0 -41 -37 -87 -81z"/>
<path d="M2136 2161 l-57 -58 33 -26 c18 -15 45 -39 61 -53 31 -31 34 -26 11
17 -9 18 -32 38 -55 48 l-39 18 40 16 c30 12 44 25 56 52 8 21 14 39 12 41 -2
2 -30 -23 -62 -55z"/>
<path d="M2215 2200 c11 -39 32 -68 55 -75 35 -11 32 -1 -16 51 -37 40 -45 44
-39 24z"/>
<path d="M2243 2068 c-21 -24 -38 -72 -22 -62 5 3 9 10 9 16 0 6 15 23 33 39
21 19 27 29 16 29 -8 0 -25 -10 -36 -22z"/>
<path d="M2181 1830 c-8 -13 -20 -30 -27 -37 -7 -7 -21 -23 -31 -36 -10 -12
-29 -30 -43 -40 l-24 -17 30 0 c51 0 120 82 112 133 -3 22 -4 22 -17 -3z"/>
<path d="M2210 1828 c1 -26 39 -96 61 -112 13 -9 34 -16 47 -16 20 0 16 7 -33
54 -30 30 -55 61 -55 70 0 9 -4 16 -10 16 -5 0 -10 -6 -10 -12z"/>
<path d="M2097 1651 c17 -16 46 -51 64 -77 31 -44 34 -47 37 -26 8 54 -57 132
-109 132 -21 0 -20 -2 8 -29z"/>
<path d="M2278 1664 c-15 -8 -34 -27 -41 -42 -18 -34 -30 -82 -21 -82 9 0 44
41 44 51 0 11 39 51 70 72 l24 17 -24 0 c-14 -1 -37 -7 -52 -16z"/>
<path d="M1775 1178 l-60 -63 63 60 c58 55 67 65 59 65 -1 0 -29 -28 -62 -62z"/>
<path d="M437 944 c-11 -11 -9 -26 3 -19 6 3 10 -1 10 -10 0 -10 13 -30 30
-45 l30 -28 -24 -16 c-14 -8 -27 -25 -31 -36 -6 -19 -9 -18 -44 17 -34 35 -36
39 -19 51 10 7 23 23 29 35 11 20 9 20 -17 -4 -16 -14 -38 -29 -49 -33 -18 -7
-16 -10 16 -26 22 -12 43 -34 54 -57 l18 -38 14 33 c7 18 27 41 43 50 17 9 30
20 30 23 0 3 -14 15 -30 28 -17 12 -36 35 -43 52 -6 17 -15 27 -20 23z"/>
<path d="M2470 786 c-7 -21 -10 -40 -7 -42 3 -3 8 10 12 28 7 29 9 30 16 13 5
-13 8 -15 8 -5 0 8 -3 21 -8 29 -6 10 -12 3 -21 -23z"/>
<path d="M2501 748 c-1 -11 14 -25 41 -38 48 -23 48 -23 48 -12 0 5 -18 14
-39 21 -22 6 -42 19 -44 29 -4 16 -5 16 -6 0z"/>
<path d="M2398 713 c-10 -2 -18 -8 -18 -13 0 -9 61 -32 68 -26 2 3 -8 8 -23
12 -26 7 -27 8 -10 20 19 14 15 16 -17 7z"/>
<path d="M626 623 c-29 -35 -29 -36 -9 -52 11 -9 25 -25 30 -35 10 -18 11 -18
23 5 7 13 19 28 26 32 19 11 17 17 -14 54 l-28 32 -28 -36z m49 -54 l-20 -25
-18 23 c-18 22 -18 24 0 47 l18 24 20 -22 21 -21 -21 -26z"/>
</g>
</svg>
