<?xml version="1.0" standalone="no"?>
<!DOCTYPE svg PUBLIC "-//W3C//DTD SVG 20010904//EN"
 "http://www.w3.org/TR/2001/REC-SVG-20010904/DTD/svg10.dtd">
<svg version="1.0" xmlns="http://www.w3.org/2000/svg"
 width="300.000000pt" height="314.000000pt" viewBox="0 0 300.000000 314.000000"
 preserveAspectRatio="xMidYMid meet">
<metadata>
Created by potrace 1.10, written by Peter Selinger 2001-2011
</metadata>
<g transform="translate(0.000000,314.000000) scale(0.100000,-0.100000)"
fill="#000000" stroke="none">
<path d="M1706 2919 c-49 -5 -91 -11 -93 -13 -2 -2 58 -1 134 1 164 6 282 -11
400 -58 43 -17 80 -34 83 -38 3 -4 37 -29 75 -54 125 -82 221 -200 261 -319 9
-27 22 -86 30 -131 13 -79 13 -80 8 -17 -3 36 -10 82 -15 104 -14 53 -3 58 13
5 21 -72 16 -231 -11 -324 -43 -153 -147 -309 -278 -418 -76 -62 -237 -142
-342 -168 -46 -12 -131 -27 -190 -34 -102 -12 -104 -13 -40 -14 106 -2 331 52
396 94 12 8 27 15 33 15 10 0 47 25 164 109 79 57 172 174 226 286 56 114 76
184 86 305 9 98 21 74 23 -45 2 -132 -32 -241 -111 -355 -66 -96 -80 -113
-148 -181 -206 -208 -531 -310 -840 -265 -58 9 -120 20 -139 26 -41 12 -55 5
-18 -9 58 -22 196 -41 302 -41 297 0 563 112 756 318 111 119 174 235 204 380
20 92 18 165 -5 258 -34 134 -82 216 -190 325 -81 81 -110 103 -197 147 -109
56 -250 99 -353 107 -36 3 -81 7 -100 9 -19 2 -75 -1 -124 -5z"/>
<path d="M1758 2883 c29 -2 74 -2 100 0 26 2 2 3 -53 3 -55 0 -76 -1 -47 -3z"/>
<path d="M1635 2856 c-62 -12 -124 -29 -190 -51 -14 -4 -12 -2 5 9 39 24 14
19 -51 -10 -32 -15 -56 -30 -54 -34 7 -11 -24 -22 -37 -13 -7 4 -8 1 -3 -7 6
-10 4 -12 -9 -7 -10 4 -15 3 -11 -3 3 -6 0 -10 -8 -10 -8 0 -39 -18 -68 -40
-306 -229 -396 -547 -236 -830 33 -59 175 -209 217 -229 21 -10 20 -8 -5 11
-179 136 -285 329 -272 498 5 72 36 210 47 210 4 0 0 -24 -8 -52 -24 -85 -21
-248 7 -330 62 -183 215 -329 418 -399 91 -31 86 -21 -8 14 -95 37 -189 99
-260 174 -55 57 -99 121 -99 144 0 9 -7 22 -15 29 -8 7 -13 16 -10 20 3 5 1
11 -5 15 -6 4 -7 11 -4 17 4 6 1 14 -6 18 -21 13 -25 183 -6 264 19 80 72 186
123 246 19 22 33 43 31 46 -9 8 -66 -64 -105 -131 -20 -35 -39 -63 -41 -60 -4
4 52 106 73 134 21 27 84 91 91 91 3 0 1 -7 -6 -15 -23 -28 6 -15 36 16 59 61
205 144 330 187 34 12 115 29 180 38 152 22 274 11 422 -39 131 -44 200 -86
293 -177 160 -157 205 -345 134 -557 -72 -214 -271 -394 -530 -480 -38 -12
-54 -20 -35 -17 65 11 189 65 267 116 215 139 345 355 345 573 1 166 -51 286
-176 411 -66 66 -99 90 -176 128 -52 25 -131 55 -175 67 -104 26 -311 34 -410
15z"/>
<path d="M1700 2793 c-227 -38 -383 -106 -509 -219 -147 -133 -222 -284 -220
-439 l2 -70 8 70 c4 39 13 84 18 100 9 25 10 19 7 -35 -6 -86 25 -200 55 -200
4 0 1 16 -7 37 -43 103 -36 234 19 338 61 115 217 248 346 295 31 11 65 25 76
30 82 37 251 54 403 41 108 -10 275 -55 309 -83 8 -6 16 -8 19 -5 9 9 -63 42
-152 70 -83 26 -198 45 -314 50 -36 2 -14 4 50 5 282 5 523 -114 653 -320 19
-29 41 -71 51 -93 12 -28 15 -32 11 -12 -3 15 -17 51 -30 80 -105 221 -371
369 -659 366 -61 -1 -122 -4 -136 -6z"/>
<path d="M1737 2719 c7 -7 21 -7 44 -1 l34 10 -44 1 c-32 1 -42 -2 -34 -10z"/>
<path d="M1500 2670 c0 -6 -11 -15 -25 -20 -52 -20 -154 -92 -204 -145 -29
-30 -61 -55 -72 -55 -10 0 -19 -5 -19 -11 0 -6 9 -8 23 -3 12 4 28 7 36 8 7 1
38 26 68 58 30 31 86 78 125 104 l71 48 41 -24 c48 -27 166 -119 166 -128 0
-4 -18 -18 -40 -31 -48 -30 -146 -128 -137 -137 4 -4 15 0 25 9 10 10 22 17
27 17 5 0 0 -7 -11 -15 -14 -10 -15 -14 -5 -15 8 0 26 11 40 24 15 14 53 45
86 70 l60 45 37 -36 c47 -45 60 -38 19 10 -17 19 -31 37 -31 40 0 3 20 13 45
22 25 10 50 24 56 31 14 17 -2 19 -19 2 -7 -7 -12 -8 -12 -3 0 5 12 19 26 30
l27 21 -33 37 c-18 20 -37 37 -43 37 -6 0 3 -15 21 -33 35 -36 39 -47 18 -47
-8 0 -40 -14 -71 -30 l-57 -30 -42 38 c-23 21 -69 57 -103 80 -61 41 -93 52
-93 32z m280 -170 c-6 -11 -15 -18 -20 -15 -5 3 -11 1 -15 -5 -9 -15 -25 -12
-25 6 0 8 3 13 8 10 4 -2 18 2 32 10 33 17 33 17 20 -6z"/>
<path d="M2345 2564 c105 -103 166 -232 164 -349 -1 -48 -1 -49 -10 -17 -5 17
-11 32 -12 32 -1 0 -2 -37 -3 -83 -1 -74 -5 -90 -40 -162 -56 -116 -147 -235
-180 -235 -7 0 -21 10 -31 23 -23 27 -72 68 -57 47 6 -8 25 -34 43 -57 l32
-42 -57 -37 c-69 -44 -138 -75 -227 -102 l-68 -20 -9 21 c-28 74 -49 110 -49
91 -1 -12 6 -39 15 -59 13 -31 13 -40 2 -47 -7 -5 -73 -7 -149 -4 -257 9 -425
72 -565 211 -45 44 -93 103 -108 130 -15 28 -24 39 -20 25 12 -49 58 -115 129
-186 58 -58 91 -81 166 -117 145 -70 205 -82 404 -82 198 1 244 10 400 85 214
103 363 279 411 488 37 158 -51 361 -211 485 -22 17 -9 0 30 -39z"/>
<path d="M912 2448 c-110 -180 -120 -434 -25 -626 30 -62 58 -98 144 -183 103
-104 105 -107 92 -132 l-13 -26 -57 57 c-31 31 -74 81 -96 110 -22 28 -41 52
-44 52 -15 0 53 -96 114 -160 70 -74 71 -76 59 -105 -7 -17 -29 -51 -49 -77
-24 -32 -32 -48 -22 -48 8 0 28 20 45 45 17 25 38 45 46 45 29 0 74 -30 68
-45 -4 -8 -10 -12 -15 -9 -5 3 -12 -3 -16 -13 -11 -28 -31 -45 -38 -32 -5 7
-11 7 -17 1 -6 -6 -18 -8 -27 -5 -9 3 8 -9 37 -26 28 -17 58 -40 64 -51 7 -11
17 -20 22 -20 4 0 -4 16 -19 36 -15 19 -25 38 -22 40 6 7 77 -85 77 -99 0 -6
3 -8 6 -5 7 7 -19 69 -37 88 -27 29 -44 54 -31 46 8 -5 14 2 18 23 6 28 24 44
24 21 0 -5 7 -10 14 -10 8 0 27 -15 41 -34 22 -29 25 -38 15 -58 l-11 -23 20
23 c16 19 18 28 10 50 -14 36 -28 52 -43 46 -7 -3 -19 2 -26 11 -7 8 -9 15 -4
15 22 1 -64 39 -88 40 -33 0 -34 3 -7 41 17 24 25 28 46 22 76 -19 159 -109
151 -165 -6 -35 4 -36 23 -1 11 21 11 27 1 30 -6 3 -10 9 -7 14 7 11 -14 53
-22 45 -9 -8 -43 24 -43 40 0 15 -78 54 -108 54 -27 0 -29 16 -4 29 22 12 55
5 99 -21 23 -14 33 -16 39 -7 4 7 -1 18 -11 26 -22 15 -13 18 13 3 28 -15 153
-48 207 -54 l50 -6 -65 19 c-94 26 -208 73 -284 115 -122 68 -245 205 -301
334 -10 23 -21 42 -26 42 -12 0 -39 133 -39 190 0 75 26 177 64 253 37 72 40
87 8 35z m226 -848 c36 -22 50 -36 43 -43 -7 -7 -17 -5 -33 6 -30 21 -79 67
-98 92 -13 18 -12 18 10 -1 14 -12 49 -36 78 -54z"/>
<path d="M1303 2413 c65 -27 40 -44 -33 -23 -76 22 -104 -3 -152 -140 -28 -78
-36 -236 -15 -276 16 -29 16 -28 17 49 0 43 7 112 16 154 15 73 70 213 83 213
17 0 153 -41 196 -60 27 -11 56 -18 64 -14 9 4 23 6 31 5 13 -2 13 -1 0 9 -30
22 -116 63 -169 81 -65 23 -91 24 -38 2z m90 -43 c15 -7 27 -18 27 -23 0 -5
-6 -5 -13 2 -8 6 -24 13 -38 15 -13 3 -25 5 -27 5 -2 1 0 6 3 11 4 6 9 9 13 7
4 -2 19 -9 35 -17z"/>
<path d="M1474 2286 c-60 -68 -155 -243 -168 -311 -6 -27 -5 -28 7 -12 15 18
33 24 22 7 -3 -5 -2 -10 4 -10 5 0 17 22 26 49 19 58 104 204 142 244 28 28
25 34 -9 16 -18 -9 -19 -8 -13 10 7 24 5 26 -11 7z"/>
<path d="M1557 2291 c-24 -9 -14 -18 70 -60 72 -36 73 -36 73 -17 0 13 -105
87 -120 85 -3 0 -13 -4 -23 -8z"/>
<path d="M2571 2089 c-7 -30 -34 -94 -59 -143 -82 -159 -237 -295 -429 -376
-201 -84 -501 -93 -707 -21 -86 30 -80 19 6 -14 320 -119 725 -43 969 183 69
64 140 155 177 228 26 52 65 170 60 185 -2 6 -10 -13 -17 -42z"/>
<path d="M1136 1961 c-6 -9 142 -27 150 -18 6 6 -88 27 -121 27 -13 0 -26 -4
-29 -9z"/>
<path d="M2109 1826 c-21 -21 -125 -72 -189 -92 -30 -10 -49 -19 -42 -22 33
-11 269 104 251 123 -3 2 -12 -2 -20 -9z"/>
<path d="M2578 1743 c-147 -222 -339 -354 -611 -422 -134 -34 -402 -31 -501 5
-22 8 -49 18 -59 21 -10 3 -21 19 -24 35 -9 47 -21 41 -21 -12 l0 -49 57 -17
c314 -92 677 -33 936 151 76 54 172 154 219 228 39 60 79 147 72 154 -2 2 -33
-40 -68 -94z"/>
<path d="M1688 1513 c18 -2 45 -2 60 0 15 2 0 4 -33 4 -33 0 -45 -2 -27 -4z"/>
<path d="M1595 1449 c51 -10 92 -10 50 1 -16 4 -43 8 -60 8 -25 0 -24 -2 10
-9z"/>
<path d="M891 1288 c-38 -28 -520 -667 -556 -737 -28 -56 -34 -149 -13 -198
23 -53 70 -104 121 -129 41 -21 58 -25 96 -19 124 17 158 43 240 178 27 45
103 159 169 252 185 266 216 311 205 300 -10 -9 -197 -265 -372 -509 -47 -64
-79 -98 -120 -124 -31 -19 -59 -40 -63 -46 -4 -6 -10 -7 -14 -3 -4 4 -13 2
-21 -4 -9 -8 -13 -8 -13 -1 0 6 -14 9 -32 6 -34 -4 -123 20 -133 37 -4 5 5 5
20 -1 42 -16 42 -12 -1 20 -36 26 -64 65 -64 90 0 5 25 0 55 -10 30 -10 57
-15 60 -10 3 4 -11 11 -29 14 -35 7 -96 64 -96 89 1 7 8 3 18 -8 9 -11 26 -27
37 -35 16 -11 17 -11 8 0 -7 8 -13 22 -13 31 0 10 -5 19 -11 21 -18 6 24 99
77 167 27 35 113 150 192 255 245 327 254 339 286 368 38 35 14 39 -33 6z"/>
<path d="M1184 1299 c-3 -6 -1 -16 5 -22 9 -9 14 -8 21 3 5 8 10 18 10 23 0
11 -28 8 -36 -4z"/>
<path d="M1150 1153 c-34 -52 -35 -56 -12 -49 26 9 38 -29 14 -44 -10 -5 -12
-10 -5 -10 16 0 73 59 73 76 0 7 -10 24 -22 39 l-23 25 -25 -37z"/>
<path d="M905 822 c-114 -152 -208 -281 -208 -287 -1 -5 -13 -20 -27 -33 l-25
-23 33 22 c17 13 32 28 32 34 0 6 14 25 30 43 17 18 30 35 30 38 0 17 77 113
88 109 7 -3 10 0 7 6 -6 8 13 38 62 99 78 98 157 205 156 212 -2 4 6 8 18 8
11 0 18 4 14 9 -3 6 2 14 11 19 14 8 15 10 1 15 -12 4 -69 -66 -222 -271z"/>
<path d="M734 416 c-18 -19 -36 -57 -31 -62 7 -7 47 46 47 62 0 17 -2 17 -16
0z"/>
</g>
</svg>
