<?xml version="1.0" standalone="no"?>
<!DOCTYPE svg PUBLIC "-//W3C//DTD SVG 20010904//EN"
 "http://www.w3.org/TR/2001/REC-SVG-20010904/DTD/svg10.dtd">
<svg version="1.0" xmlns="http://www.w3.org/2000/svg"
 width="300.000000pt" height="290.000000pt" viewBox="0 0 300.000000 290.000000"
 preserveAspectRatio="xMidYMid meet">
<metadata>
Created by potrace 1.10, written by Peter Selinger 2001-2011
</metadata>
<g transform="translate(0.000000,290.000000) scale(0.100000,-0.100000)"
fill="#000000" stroke="none">
<path d="M1442 2747 c-23 -14 -57 -55 -50 -63 3 -2 10 7 17 20 15 27 50 46 86
46 64 0 94 -38 136 -175 12 -38 68 -202 125 -364 80 -225 102 -296 92 -303
-12 -7 -4 -12 16 -9 5 1 5 -6 1 -16 -4 -10 -9 -27 -11 -38 -5 -20 -5 -20 6 0
10 19 20 20 193 18 456 -7 725 -8 720 -3 -2 3 -203 7 -445 10 l-441 5 -39 110
c-22 61 -85 242 -139 403 -55 162 -104 303 -110 313 -26 49 -108 73 -157 46z"/>
<path d="M1380 2669 c0 -3 -27 -82 -59 -177 -32 -95 -55 -174 -51 -177 13 -8
128 340 116 352 -3 4 -6 4 -6 2z"/>
<path d="M1477 2605 c-8 -17 -73 -192 -145 -390 -72 -198 -137 -378 -146 -400
l-16 -41 -443 -2 c-354 -3 -445 -6 -456 -17 -30 -29 -4 -61 138 -169 136 -103
168 -124 140 -89 -8 9 10 -1 39 -21 28 -21 52 -34 52 -29 0 4 -26 27 -58 50
-31 23 -73 58 -92 79 l-35 36 50 -6 c40 -5 244 -64 325 -94 8 -3 24 -7 35 -9
11 -2 24 -8 29 -13 6 -6 19 -10 31 -10 11 0 45 -9 75 -21 30 -11 69 -24 86
-29 18 -4 38 -11 45 -16 7 -4 25 -9 39 -11 34 -4 160 -49 172 -61 12 -12 -39
-42 -70 -42 -10 0 -22 -4 -28 -8 -5 -5 -64 -32 -130 -61 -111 -47 -154 -55
-154 -30 0 5 -19 21 -42 35 -24 15 -48 32 -54 38 -21 21 -152 118 -156 116 -7
-7 -48 21 -45 32 1 6 -3 12 -10 15 -6 2 -10 -4 -9 -14 2 -9 75 -71 164 -136
95 -69 162 -125 162 -135 0 -9 -52 -189 -116 -400 -63 -211 -114 -396 -112
-410 2 -20 9 -27 24 -26 17 0 650 424 707 472 16 14 23 11 87 -34 165 -115
404 -280 523 -361 104 -71 132 -85 145 -76 9 5 18 17 20 26 2 9 -31 132 -73
274 -42 142 -94 320 -117 395 -22 76 -38 144 -35 152 3 8 106 90 229 182 300
225 297 222 291 244 -3 11 -11 16 -19 13 -11 -4 -12 -8 -3 -19 10 -12 9 -13
-5 -8 -10 4 -25 -4 -43 -25 -15 -17 -31 -31 -36 -31 -12 0 -37 -27 -37 -40 0
-6 -6 -10 -12 -7 -7 2 -28 -12 -47 -32 -19 -20 -36 -35 -38 -33 -5 4 -50 -28
-80 -55 -13 -13 -26 -23 -30 -23 -4 0 -38 -26 -83 -63 -29 -24 -81 -57 -90
-57 -6 0 -10 -5 -10 -11 0 -14 -38 -5 -105 26 -27 12 -72 30 -100 40 -27 9
-59 21 -70 26 -11 5 -38 15 -59 22 -22 8 -41 18 -43 24 -4 10 117 53 157 56
11 1 20 5 20 9 0 4 6 8 14 8 17 0 115 29 138 41 10 5 26 9 36 9 10 0 22 4 28
8 8 8 99 37 99 32 0 -1 18 5 40 15 22 9 47 18 55 20 8 2 51 15 94 29 43 14 86
26 96 26 9 0 31 7 49 16 17 9 38 13 46 10 8 -3 17 -1 20 4 11 18 35 11 28 -8
-6 -15 -5 -16 13 -2 19 14 19 14 0 -8 -31 -36 -10 -26 69 34 78 59 100 94 74
119 -11 11 -104 14 -451 17 l-436 3 -113 320 c-62 176 -125 351 -141 389 -15
38 -28 74 -28 80 0 6 -11 24 -24 41 l-23 29 -16 -29z m45 -52 c9 -27 73 -209
143 -407 l126 -359 -33 -41 c-18 -22 -36 -45 -40 -51 -31 -38 -108 -147 -108
-151 0 -3 -18 -26 -39 -52 -38 -45 -67 -100 -57 -109 4 -4 16 11 186 235 l101
132 238 0 c131 0 333 -3 450 -7 217 -6 250 -15 160 -39 -24 -7 -237 -74 -474
-149 -236 -76 -481 -153 -542 -173 -62 -20 -113 -39 -113 -42 0 -4 71 -33 158
-64 86 -32 193 -72 236 -89 l79 -32 99 -330 c54 -181 96 -336 93 -343 -3 -7
-1 -11 3 -8 10 6 42 -89 42 -122 0 -12 -5 -22 -12 -22 -10 0 -327 209 -423
279 -22 16 -98 70 -169 120 -128 90 -130 91 -155 75 -14 -9 -109 -74 -211
-144 -253 -175 -454 -309 -458 -305 -2 1 30 44 70 95 61 78 157 201 222 285 9
11 37 47 63 81 27 33 56 71 65 85 61 85 130 174 139 180 6 3 10 9 10 13 -1 4
26 44 61 90 71 96 56 99 143 -29 26 -38 51 -72 54 -75 3 -3 22 -27 41 -55 36
-52 47 -66 68 -90 6 -7 12 -17 12 -20 0 -8 72 -99 83 -103 4 -2 7 -9 7 -16 0
-6 8 -19 18 -27 9 -9 35 -40 57 -69 22 -29 54 -69 70 -90 17 -21 57 -73 90
-115 88 -112 123 -151 130 -144 3 4 -23 40 -57 80 -35 41 -81 101 -103 134
-21 33 -65 94 -95 135 -31 41 -119 163 -195 270 -143 201 -242 339 -255 353
-4 5 -54 -58 -111 -139 -146 -207 -179 -253 -219 -307 -19 -26 -64 -87 -99
-135 -36 -48 -68 -89 -72 -92 -4 -3 -15 -19 -25 -36 -11 -18 -57 -81 -104
-140 -47 -60 -85 -115 -85 -123 0 -8 -6 -16 -13 -19 -18 -6 -15 30 9 109 13
42 25 66 32 62 6 -4 8 2 5 15 -4 12 -2 22 4 22 5 0 6 10 3 21 -4 12 -3 19 2
16 5 -3 10 2 11 11 6 55 15 92 23 92 5 0 9 12 9 26 0 14 5 35 12 47 7 12 13
31 15 42 1 11 24 97 50 192 l48 172 130 50 c72 27 178 66 238 86 59 21 107 40
107 44 0 3 -87 34 -193 68 -388 125 -614 196 -712 225 -130 38 -277 86 -283
93 -3 3 -3 7 0 10 3 3 207 9 452 13 l447 7 23 -25 c13 -14 81 -103 151 -197
70 -95 129 -173 132 -173 3 0 3 267 0 593 -5 568 -3 647 12 647 4 0 14 -21 23
-47z m-63 -560 c-1 -263 -1 -488 -1 -500 0 -13 -4 -23 -9 -23 -5 0 -9 7 -9 15
0 7 -6 18 -13 22 -6 4 -25 26 -42 48 -16 22 -32 42 -35 45 -3 3 -17 21 -30 40
-13 19 -42 58 -64 85 -29 36 -41 59 -40 80 1 17 38 129 82 250 117 321 131
358 142 377 6 10 10 25 10 35 0 9 3 14 6 11 3 -3 5 -221 3 -485z m-924 -481
c-4 -4 -95 67 -95 74 0 3 22 -12 50 -33 27 -20 48 -39 45 -41z"/>
<path d="M844 491 c-21 -35 -31 -39 -37 -13 -2 9 -4 0 -3 -20 1 -20 3 -34 7
-30 32 41 60 84 56 88 -3 3 -13 -8 -23 -25z"/>
<path d="M1222 2198 c-7 -7 -12 -17 -12 -23 0 -6 -24 -76 -54 -156 l-53 -144
-444 -5 c-475 -5 -470 -5 -507 -58 -48 -67 -34 -147 34 -198 22 -16 41 -32 42
-36 2 -5 8 -8 14 -8 11 0 27 -12 238 -165 69 -50 184 -133 255 -185 72 -51
133 -96 137 -99 4 -4 1 -26 -6 -51 -8 -28 -15 -39 -19 -30 -3 8 -3 2 0 -14 4
-22 3 -27 -7 -21 -9 5 -10 2 -5 -15 5 -16 4 -20 -5 -15 -9 5 -10 2 -5 -14 4
-12 2 -21 -4 -21 -6 0 -7 -7 -4 -17 5 -11 3 -14 -6 -8 -10 5 -11 2 -6 -14 3
-11 2 -21 -3 -21 -6 0 -8 -10 -5 -22 4 -19 3 -20 -7 -8 -9 12 -10 10 -5 -13 4
-20 2 -27 -6 -22 -8 5 -9 1 -4 -15 5 -14 3 -20 -3 -16 -6 4 -8 -2 -4 -16 3
-15 2 -19 -7 -14 -9 6 -10 0 -5 -20 5 -18 3 -25 -4 -20 -6 4 -8 -2 -4 -16 3
-11 1 -19 -4 -16 -5 3 -10 -12 -11 -34 0 -23 3 -36 8 -31 10 10 79 221 79 243
0 9 4 20 9 25 11 13 60 173 63 207 3 33 -16 69 -46 88 -58 37 -104 70 -135 99
-19 17 -37 31 -41 31 -3 0 -15 8 -26 18 -10 9 -37 29 -59 44 -22 14 -53 38
-70 53 -16 15 -43 33 -58 41 -15 8 -25 19 -21 25 3 6 17 -1 31 -16 14 -14 31
-25 37 -25 5 0 20 -10 31 -23 11 -13 35 -29 53 -36 17 -8 32 -17 32 -22 0 -5
7 -9 15 -9 8 0 15 -4 15 -10 0 -5 6 -10 13 -10 7 0 31 -13 53 -30 21 -16 43
-30 47 -30 4 0 13 -5 20 -10 39 -33 109 -81 112 -78 3 2 -17 20 -43 40 -26 19
-162 120 -302 225 -140 104 -267 202 -283 218 -21 21 -27 24 -27 11 0 -9 11
-28 24 -41 13 -13 21 -27 17 -30 -3 -4 -1 -5 5 -3 6 2 25 -10 41 -27 16 -16
43 -38 59 -47 15 -9 30 -21 32 -28 8 -24 -148 83 -235 162 -23 20 -28 53 -17
93 9 31 49 55 104 62 56 6 73 17 32 20 -53 3 -92 -8 -123 -35 -29 -24 -31 -24
-20 -4 27 51 37 52 507 52 l438 0 28 -27 28 -27 -6 29 c-3 17 0 50 7 75 6 25
12 62 12 82 1 20 5 36 10 35 5 -1 12 5 14 13 4 13 3 13 -7 0 -15 -22 -3 30 27
104 24 62 25 74 5 54z"/>
<path d="M2813 1822 c38 -47 34 -57 -7 -16 -24 24 -43 34 -62 33 l-29 -1 34
-14 c60 -26 85 -70 74 -126 -4 -22 -3 -29 5 -24 8 5 10 2 6 -8 -3 -9 -10 -13
-15 -10 -5 3 -6 -1 -4 -8 3 -8 -8 -24 -25 -36 -16 -13 -30 -17 -30 -11 0 12
-50 4 -60 -10 -6 -9 -203 -151 -231 -167 -10 -6 -27 -18 -37 -27 -10 -10 -24
-17 -30 -17 -7 0 -12 -4 -12 -9 0 -4 -28 -28 -62 -51 -57 -39 -145 -107 -158
-120 -3 -3 -18 -13 -33 -23 -36 -23 -50 -61 -38 -101 40 -128 121 -387 163
-516 90 -281 84 -257 64 -295 -27 -50 -61 -62 -112 -40 -36 15 -277 183 -282
196 -2 5 -18 16 -36 24 -19 9 -42 24 -52 33 -11 9 -32 24 -47 32 -16 8 -40 24
-53 37 -13 12 -24 20 -24 17 0 -5 -77 52 -90 66 -3 3 -27 20 -55 37 -79 49
-93 49 -167 0 -35 -23 -75 -52 -88 -65 -13 -12 -29 -22 -35 -22 -7 0 -20 -9
-30 -20 -10 -11 -24 -20 -31 -20 -7 0 -14 -3 -16 -7 -1 -5 -25 -24 -53 -43
-27 -19 -59 -42 -69 -52 -11 -10 -25 -18 -32 -18 -7 0 -14 -4 -16 -8 -4 -12
-95 -72 -107 -72 -6 0 -15 -9 -21 -20 -6 -11 -16 -20 -23 -20 -7 0 -23 -12
-36 -26 -24 -25 -77 -52 -117 -60 -14 -3 -33 6 -54 26 -30 28 -32 34 -27 75 4
25 11 53 16 62 14 25 43 134 38 140 -3 2 -18 -29 -33 -71 -16 -41 -31 -70 -35
-64 -10 16 -21 -46 -13 -77 5 -20 4 -26 -5 -21 -15 9 -14 3 3 -39 18 -43 69
-75 116 -74 26 1 28 3 10 6 -58 9 -73 15 -96 40 -13 14 -24 32 -24 39 0 8 15
-2 32 -21 24 -26 46 -37 80 -44 32 -6 45 -5 41 2 -4 7 1 8 13 3 10 -4 15 -4
11 0 -9 10 44 45 56 37 6 -3 7 -2 4 4 -4 6 40 41 96 80 56 38 198 136 315 218
l214 148 59 -42 c33 -23 184 -128 337 -234 152 -106 278 -196 279 -200 1 -5 5
-12 9 -15 4 -4 3 -1 -1 7 -6 11 -4 13 11 6 62 -26 114 -11 151 44 24 35 32 27
12 -12 -9 -18 -9 -20 2 -10 16 16 24 127 8 117 -8 -4 -9 1 -4 16 5 17 4 21 -6
15 -9 -6 -11 -3 -6 10 7 17 -22 140 -30 131 -3 -3 0 -21 7 -41 7 -20 10 -38 8
-41 -10 -10 -131 383 -124 402 4 9 2 12 -5 8 -8 -4 -9 1 -4 16 5 17 4 20 -5
15 -10 -6 -11 -1 -6 21 5 23 4 26 -5 14 -8 -12 -9 -9 -4 13 4 20 2 27 -6 22
-8 -5 -9 -1 -4 15 4 13 3 20 -2 17 -5 -3 -20 26 -32 65 l-23 71 23 19 c74 57
448 329 451 327 2 -2 17 10 33 25 17 15 44 35 60 44 17 8 35 22 41 30 6 8 19
16 30 17 63 8 99 52 110 131 7 56 -7 94 -47 129 -19 17 -19 14 4 -13z"/>
<path d="M2468 1486 c-239 -181 -331 -253 -258 -203 14 10 32 20 40 24 8 3 28
17 43 30 16 13 33 23 38 23 5 0 39 23 77 50 38 28 72 50 75 50 8 0 37 23 80
62 16 15 34 25 40 21 5 -3 7 -2 4 4 -3 5 3 16 15 24 67 46 143 121 121 118 -4
0 -128 -92 -275 -203z"/>
<path d="M590 1451 c19 -17 39 -31 44 -31 15 0 -11 24 -46 43 l-33 19 35 -31z"/>
<path d="M1390 711 c-178 -126 -575 -398 -605 -414 -16 -9 -24 -16 -16 -17 17
0 97 46 125 72 11 10 25 18 32 18 6 0 17 7 24 15 7 8 16 12 21 9 5 -3 9 -1 9
3 0 9 85 73 96 73 4 0 25 15 48 32 22 18 46 36 51 41 6 4 24 19 40 32 17 14
34 25 39 25 8 0 107 68 116 81 3 4 19 15 36 25 17 11 42 27 56 37 25 17 27 17
67 -4 22 -11 41 -25 41 -30 0 -5 7 -9 15 -9 7 0 18 -6 22 -13 4 -8 40 -34 78
-59 39 -24 95 -68 124 -95 30 -28 79 -64 110 -80 30 -15 68 -39 84 -52 15 -14
35 -26 44 -27 9 -2 19 -7 22 -12 6 -9 56 -40 114 -70 16 -8 31 -11 34 -8 3 3
-6 10 -20 15 -27 11 -225 145 -517 350 -96 68 -179 125 -185 126 -5 2 -53 -27
-105 -64z"/>
<path d="M2306 193 c-4 -4 -28 -10 -54 -14 l-47 -6 41 -2 c22 0 49 6 60 14 10
8 16 15 13 15 -3 0 -9 -3 -13 -7z"/>
</g>
</svg>
